<?xml version="1.0" encoding="UTF-8"?>
<svg version="1.1" xmlns="http://www.w3.org/2000/svg" width="1058" height="1058">
<path d="M0 0 C349.14 0 698.28 0 1058 0 C1058 349.14 1058 698.28 1058 1058 C708.86 1058 359.72 1058 0 1058 C0 708.86 0 359.72 0 0 Z " fill="#FEFDF1" transform="translate(0,0)"/>
<path d="M0 0 C12.99253554 6.88319281 19.62057169 17.87244146 24.59375 31.29296875 C29.83391409 50.56341787 24.88648766 73.10243465 18.4921875 91.3203125 C18.10627441 92.41988281 17.72036133 93.51945312 17.32275391 94.65234375 C11.06256331 112.06938426 3.27676465 128.75768515 -4.70291138 145.43348694 C-7.90849561 152.1380679 -11.02113479 158.88413963 -14.1328125 165.6328125 C-17.78836899 173.54400008 -21.50879583 181.41715545 -25.32836914 189.25048828 C-49.99681653 238.8086554 -49.99681653 238.8086554 -63.3828125 292.0703125 C-64.30888304 298.0855995 -66.81336306 300.66066105 -71.5078125 304.3203125 C-72.35085938 305.01511719 -73.19390625 305.70992188 -74.0625 306.42578125 C-75.91349109 307.94904729 -77.77303393 309.46197615 -79.640625 310.96484375 C-84.06537079 314.59988695 -88.28932828 318.44955583 -92.5078125 322.3203125 C-85.89995573 318.23034313 -79.53215222 313.93440625 -73.27734375 309.32421875 C-70.64391311 307.41878868 -67.972363 305.60775169 -65.2578125 303.8203125 C-59.33990856 299.9106779 -53.51457115 295.87510297 -47.6953125 291.8203125 C-46.70644043 291.13146973 -45.71756836 290.44262695 -44.69873047 289.73291016 C-39.67746563 286.23275296 -34.65987481 282.72738498 -29.64453125 279.21875 C17.35559912 246.36829978 17.35559912 246.36829978 34.4921875 241.3203125 C35.63107422 240.98386719 35.63107422 240.98386719 36.79296875 240.640625 C48.11810024 237.86168517 59.89914778 238.75868098 71.21484375 240.99609375 C72.5740242 241.26086769 72.5740242 241.26086769 73.96066284 241.5309906 C84.12201345 243.56626979 94.11836137 246.17260865 104.1171875 248.8828125 C105.0824234 249.14220612 106.0476593 249.40159973 107.04214478 249.66885376 C125.05507733 254.51673504 142.88834042 259.83708769 160.59814453 265.69396973 C162.43700003 266.30206251 164.27707626 266.90645997 166.1171875 267.51074219 C227.85741997 287.89961963 227.85741997 287.89961963 239.1171875 309.6953125 C243.7290064 319.58539812 244.24305994 331.68764033 240.5859375 342.015625 C235.39271486 352.95848699 225.87271005 359.39052707 214.81640625 363.59375 C199.46785043 368.39178594 185.56722911 363.80932691 170.76953125 359.3125 C118.9996579 343.6396182 71.0038817 333.13950401 21.19140625 359.328125 C19.95728695 359.99024083 18.72419432 360.65427419 17.4921875 361.3203125 C16.8935791 361.63967773 16.2949707 361.95904297 15.67822266 362.28808594 C-11.52211568 376.892792 -36.85511935 398.75253107 -55.5078125 423.3203125 C-56.14082275 424.14668213 -56.14082275 424.14668213 -56.78662109 424.98974609 C-84.28539834 461.03183277 -104.26687629 504.83011722 -104.74609375 550.8515625 C-104.75584229 551.63702454 -104.76559082 552.42248657 -104.77563477 553.23175049 C-104.95348571 571.28495547 -104.50876386 588.62341756 -100.5078125 606.3203125 C-100.32589355 607.15288574 -100.14397461 607.98545898 -99.95654297 608.84326172 C-98.71023313 614.41323089 -97.20986621 619.87307401 -95.5078125 625.3203125 C-95.24548828 626.16062012 -94.98316406 627.00092773 -94.71289062 627.86669922 C-87.74572827 649.59282155 -77.28973636 670.12060602 -63.5078125 688.3203125 C-62.44626953 689.72603516 -62.44626953 689.72603516 -61.36328125 691.16015625 C-57.33601977 696.31536867 -53.009996 701.18063739 -48.59765625 706.0078125 C-46.82424409 707.97016764 -45.12631005 709.96692659 -43.4453125 712.0078125 C-40.13880187 715.8698886 -36.43203561 719.09818682 -32.5078125 722.3203125 C-32.01249023 722.72797852 -31.51716797 723.13564453 -31.00683594 723.55566406 C3.73996854 751.981087 45.62631211 768.4484508 90.69360352 768.56054688 C93.02592466 768.57019353 95.35733971 768.60128081 97.68945312 768.6328125 C120.19949159 768.79149608 141.28673962 763.04415374 161.4921875 753.3203125 C162.16717285 753.0011084 162.8421582 752.6819043 163.53759766 752.35302734 C180.72730732 744.12550869 195.95678702 732.68938502 209.4921875 719.3203125 C210.64799316 718.18505127 210.64799316 718.18505127 211.82714844 717.02685547 C224.53706347 704.52931098 224.53706347 704.52931098 236.4921875 691.3203125 C237.46535678 690.2024376 238.439285 689.08522282 239.4140625 687.96875 C244.48533537 682.11191143 249.43425188 676.19507912 254.1796875 670.0703125 C258.07998001 665.03776675 262.13849463 660.23112719 266.453125 655.54296875 C268.30469045 653.52469147 270.0905175 651.46682115 271.8671875 649.3828125 C284.13188492 635.43417493 296.83528862 624.66437416 314.4921875 618.3203125 C315.22953125 618.05476562 315.966875 617.78921875 316.7265625 617.515625 C327.089858 614.38950694 337.72118681 616.1839649 347.4921875 620.3203125 C350.49844931 622.02763303 352.98591608 623.94625265 355.4921875 626.3203125 C356.03359375 626.82175781 356.575 627.32320312 357.1328125 627.83984375 C365.57798826 636.60491253 367.20073257 646.89984848 367.0090332 658.60888672 C366.7180419 665.78410279 365.62646749 671.80340794 362.4921875 678.3203125 C362.21793945 678.90570801 361.94369141 679.49110352 361.66113281 680.09423828 C356.72420323 690.48401452 350.54949141 700.02574279 344.21362305 709.60546875 C331.95546904 728.15075619 321.09820272 747.56412587 310.04638672 766.84228516 C293.7555551 795.22202057 274.55343282 820.3431001 251.5546875 843.5703125 C251.01455017 844.12007751 250.47441284 844.66984253 249.91790771 845.23626709 C241.94635921 853.32931559 233.56180149 860.48838263 224.4921875 867.3203125 C223.68354248 867.94083496 222.87489746 868.56135742 222.04174805 869.20068359 C204.06010633 882.94685182 185.06174094 895.94710281 165.41845703 907.21142578 C163.19345791 908.49228079 160.98209793 909.79544795 158.76953125 911.09765625 C113.69219242 937.45287368 64.72847131 956.28142783 12.4921875 961.3203125 C11.56164551 961.41530029 10.63110352 961.51028809 9.67236328 961.6081543 C1.48877113 962.37935057 -6.66689714 962.52318805 -14.8828125 962.5078125 C-15.58567383 962.50654358 -16.28853516 962.50527466 -17.01269531 962.50396729 C-47.3491351 962.40020459 -77.64755079 957.8531857 -106.5078125 948.3203125 C-107.36922852 948.03994141 -108.23064453 947.75957031 -109.11816406 947.47070312 C-160.73538951 930.42177631 -210.20032231 897.47571081 -242.5078125 853.3203125 C-243.25675781 852.35480469 -244.00570312 851.38929688 -244.77734375 850.39453125 C-292.21891092 788.99467462 -313.83382212 708.89394008 -318.5078125 632.3203125 C-318.54911285 631.65201416 -318.59041321 630.98371582 -318.63296509 630.29516602 C-319.33059197 618.79835021 -319.70623961 607.33778863 -319.6953125 595.8203125 C-319.6960376 595.01559509 -319.6967627 594.21087769 -319.69750977 593.3817749 C-319.69606083 578.38562141 -319.14936708 563.42595132 -318.5078125 548.4453125 C-317.19099414 517.57107896 -316.19809334 487.95171992 -322.4375 457.53125 C-322.58609404 456.80601072 -322.73468807 456.08077145 -322.88778496 455.33355522 C-326.93063546 435.70614335 -331.66466302 416.24204332 -336.37353516 396.76605225 C-338.44774699 388.18303782 -340.51177345 379.59756699 -342.57421875 371.01171875 C-342.90509176 369.63535688 -342.90509176 369.63535688 -343.24264908 368.23118973 C-346.33362014 355.36374769 -349.30300823 342.47828411 -352.13256836 329.55053711 C-353.6096328 322.81526476 -355.16240758 316.09832387 -356.7265625 309.3828125 C-356.99657578 308.2234166 -357.26658905 307.06402069 -357.54478455 305.86949158 C-358.36479916 302.35286546 -359.18606055 298.83653303 -360.0078125 295.3203125 C-361.91429223 287.16261586 -363.81068972 279.00276836 -365.69042969 270.83886719 C-366.52934722 267.22761284 -367.38912042 263.62170049 -368.25 260.015625 C-368.80525577 257.63815348 -369.35996228 255.2605536 -369.9140625 252.8828125 C-370.17513794 251.81216553 -370.43621338 250.74151855 -370.7052002 249.63842773 C-373.28191166 238.42730368 -374.20914162 227.66925975 -368.5078125 217.3203125 C-364.48813552 211.05434544 -358.5032861 207.84109252 -351.48046875 205.703125 C-341.22863749 203.71366072 -331.3952097 206.61400016 -322.6953125 212.1328125 C-304.43766316 225.35727202 -297.48190293 247.42180954 -290.8203125 268.0078125 C-290.21066595 269.86798712 -289.60005262 271.72784514 -288.98852539 273.58740234 C-287.74855015 277.36055608 -286.51284526 281.13506623 -285.28027344 284.91064453 C-283.67051865 289.83396564 -282.03732751 294.74908319 -280.390625 299.66015625 C-280.14414719 300.3953801 -279.89766937 301.13060394 -279.64372253 301.8881073 C-279.15314661 303.35113171 -278.66252112 304.81413949 -278.17184448 306.27713013 C-271.48027333 326.24672124 -264.98954964 346.28183596 -258.5078125 366.3203125 C-258.56418884 365.50275734 -258.56418884 365.50275734 -258.6217041 364.66868591 C-263.3438754 295.8246574 -263.3438754 295.8246574 -259.81103516 268.73583984 C-259.49799114 266.24207375 -259.23915864 263.74683577 -258.98828125 261.24609375 C-256.56318851 238.33648786 -251.58076644 215.74546282 -247.0859375 193.171875 C-242.20896785 168.54616496 -238.32506927 143.72735182 -235.1953125 118.8203125 C-235.03603271 117.55880371 -234.87675293 116.29729492 -234.71264648 114.99755859 C-233.97999357 108.96921772 -233.39380837 102.96739792 -233.01171875 96.90625 C-232.19457745 84.69790225 -229.25736783 74.00222815 -221.1953125 64.6328125 C-212.45200315 57.1094998 -204.71111396 55.6126474 -193.4296875 56.13232422 C-189.28365989 56.53786808 -185.99789315 58.1522321 -182.5078125 60.3203125 C-181.5178125 60.8771875 -180.5278125 61.4340625 -179.5078125 62.0078125 C-165.09702144 73.11613061 -158.908755 86.81602652 -155.5078125 104.3203125 C-155.24629395 105.60941528 -155.24629395 105.60941528 -154.97949219 106.92456055 C-154.36275941 111.36458966 -154.30678239 115.73295495 -154.26953125 120.2109375 C-154.25484047 121.65748466 -154.25484047 121.65748466 -154.23985291 123.133255 C-154.05816195 145.75146057 -154.73255207 167.74144816 -158.16876221 190.10040283 C-158.53295449 192.48492806 -158.88632873 194.87089072 -159.23779297 197.25732422 C-161.80263483 214.64371507 -164.59231828 231.98953363 -167.5078125 249.3203125 C-167.15702637 248.5581543 -166.80624023 247.79599609 -166.44482422 247.01074219 C-150.58654144 212.62287536 -133.2656744 179.59914487 -113.52558899 147.27316284 C-110.01384088 141.51871592 -106.54453456 135.73935983 -103.09448242 129.94775391 C-100.30587296 125.27768998 -97.4696463 120.64181688 -94.58984375 116.02734375 C-83.93400764 98.87353458 -74.43251901 81.29918771 -65.4498291 63.21539307 C-64.55664174 61.41854361 -63.65882462 59.62399771 -62.76074219 57.82958984 C-56.54321264 45.36669106 -50.83700418 32.85693941 -46.15454102 19.7265625 C-43.00202416 11.3067883 -38.40100545 4.03229966 -30.1953125 -0.1796875 C-20.50520239 -4.12142721 -9.69383497 -4.11340772 0 0 Z " fill="#18201F" transform="translate(498.5078125,39.6796875)"/>
<path d="M0 0 C11.22 0 22.44 0 34 0 C34 349.14 34 698.28 34 1058 C22.78 1058 11.56 1058 0 1058 C0 708.86 0 359.72 0 0 Z " fill="#FFFFFF" transform="translate(0,0)"/>
<path d="M0 0 C4.48997726 2.5860371 7.9139194 5.72260904 11.5 9.4375 C14.38577367 12.40234933 17.23552428 15.32054775 20.5 17.875 C23.17401923 20.14791634 24.68182203 21.74332502 26 25 C25.6875 28.25 25.6875 28.25 25 32 C24.52845741 37.74880643 24.62187336 42.09626778 28 47 C34.7598236 54.29631754 42.17177359 56.18051874 51.8125 56.75 C63.90478113 57.86728843 70.56853568 63.52142462 79.1875 71.64453125 C79.88017975 72.29627319 80.5728595 72.94801514 81.28652954 73.61950684 C88.96872794 80.87589838 96.53727032 88.24549337 104.03857422 95.68847656 C105.60162928 97.2348721 107.17004382 98.77586837 108.74365234 100.31152344 C126.67768301 117.81917132 139.72023951 136.39419351 146 161 C146.18763916 161.70688965 146.37527832 162.4137793 146.56860352 163.14208984 C148.26862216 170.37643708 148.33836291 177.58637234 148.31567383 184.97460938 C148.31253573 187.10079372 148.33597158 189.22555126 148.36132812 191.3515625 C148.40694711 201.21032508 147.16789163 210.39213031 145 220 C144.81187744 220.83885742 144.62375488 221.67771484 144.42993164 222.54199219 C142.35243908 231.14396723 139.24097578 239.18472164 135.5 247.1875 C135.13245605 247.97745361 134.76491211 248.76740723 134.38623047 249.58129883 C128.96432977 260.74015985 128.96432977 260.74015985 123.5 263.0625 C119.52527533 262.96313188 117.23492333 261.01440131 114.25 258.5625 C110.06077964 253.32597455 111.8408618 244.11904832 112.4921875 237.9296875 C114.47852551 216.72365703 114.88146916 193.97799104 100.9765625 176.44921875 C96.37083445 171.62290985 91.87708102 167.96364414 85 167.625 C80.03253553 167.56290669 76.17923963 169.87579156 72.65625 173.234375 C71.9446875 174.06453125 71.233125 174.8946875 70.5 175.75 C69.73429687 176.63171875 68.96859375 177.5134375 68.1796875 178.421875 C66.85056821 179.99395158 65.52223788 181.56669619 64.1953125 183.140625 C58.52127121 189.85914155 58.52127121 189.85914155 53.625 190.3125 C49.84474139 189.98661564 48.02851635 189.20255735 45 187 C44.77183594 187.53753906 44.54367187 188.07507813 44.30859375 188.62890625 C42.59851073 191.72747458 40.37037398 194.27788908 38.0625 196.9375 C37.06632943 198.1001946 36.07023791 199.26295694 35.07421875 200.42578125 C34.5642334 201.0182666 34.05424805 201.61075195 33.52880859 202.22119141 C31.13091029 205.0112085 28.75197186 207.81715202 26.375 210.625 C25.91536865 211.16713135 25.4557373 211.7092627 24.98217773 212.26782227 C22.1578513 215.60648451 19.37894634 218.97779612 16.625 222.375 C12.49933962 227.44366847 8.23325073 232.37922043 3.94238281 237.30761719 C-0.97585625 242.95915223 -5.82184277 248.66862037 -10.6484375 254.3984375 C-12.0331547 256.03928736 -13.42218891 257.67638805 -14.8125 259.3125 C-19.83237768 265.22263656 -24.79220007 271.17327438 -29.6875 277.1875 C-32.72367366 280.88014364 -35.8184997 284.52121788 -38.9140625 288.1640625 C-42.55859407 292.46013044 -46.1278734 296.81368341 -49.68359375 301.18359375 C-52.27787476 304.33785447 -54.91616742 307.45193827 -57.5625 310.5625 C-61.36216078 315.03299475 -65.07516611 319.55697197 -68.71875 324.15625 C-71.71117283 327.88653051 -74.76374975 331.56571953 -77.8125 335.25 C-82.17758978 340.52849729 -86.48264454 345.84299302 -90.6875 351.25 C-95.17329233 357.01732909 -99.8374035 362.61130291 -104.58984375 368.16015625 C-106.98877727 370.91209045 -106.98877727 370.91209045 -108.9140625 373.6484375 C-119.77474693 385.89213044 -142.60951836 388.70085525 -158 390 C-188.80269518 391.59865241 -188.80269518 391.59865241 -198 387 C-196.35584655 382.91422945 -193.43208005 380.06546066 -190.4375 376.9375 C-186.67544857 372.94262896 -183.04552236 368.92158834 -179.625 364.625 C-174.79520203 358.60537954 -169.51232295 353.0492777 -164.22265625 347.4375 C-161.32430929 344.35960942 -158.52046357 341.21519825 -155.76171875 338.01171875 C-152.95894003 334.81120646 -150.06702469 331.69235428 -147.18676758 328.56176758 C-144.27166704 325.39166422 -141.37593864 322.2057954 -138.5 319 C-130.77157951 310.39923576 -122.93408464 301.91087471 -115 293.5 C-105.19229279 283.10180054 -95.50777592 272.62038401 -86.22265625 261.75 C-80.23949764 254.74668031 -74.19727363 247.81587626 -68 241 C-61.7658756 234.10389723 -61.7658756 234.10389723 -55.625 227.125 C-52.17283922 223.15902924 -48.61249119 219.29482354 -45.05175781 215.42675781 C-41.89550293 211.99245708 -38.79792941 208.5157942 -35.7421875 204.9921875 C-33.68499601 202.63979365 -31.59403085 200.31965034 -29.5 198 C-26.23977745 194.38732096 -23.01856435 190.74511009 -19.82421875 187.07421875 C-16.95736798 183.81448051 -14.03411516 180.60589216 -11.11328125 177.39453125 C-9.63169396 175.71576414 -8.21668607 173.97698345 -6.85546875 172.19921875 C-6.24316406 171.47347656 -5.63085938 170.74773437 -5 170 C-4.34 170 -3.68 170 -3 170 C-2.78601563 169.45859375 -2.57203125 168.9171875 -2.3515625 168.359375 C-0.51922057 165.1607203 1.99796606 162.79035516 4.625 160.25 C5.140625 159.74339844 5.65625 159.23679687 6.1875 158.71484375 C7.45383339 157.47196098 8.7263144 156.23534724 10 155 C9.0261982 153.01966357 8.06919651 151.10763901 6.875 149.25 C4.80078981 143.91631667 5.91325696 139.08409655 7.5 133.8125 C11.17145386 119.96988927 10.78403579 103.30174421 3.6796875 90.6484375 C-0.16002247 85.04623771 -5.50162997 80.16612334 -12 78 C-17.74070742 77.4409798 -21.0889799 77.8983031 -26 81 C-30.74085836 81.60338197 -33.35460274 81.10286308 -37.24487305 78.37524414 C-40.93503031 75.48379111 -44.29586994 72.23068126 -47.6875 69 C-48.44611328 68.2884375 -49.20472656 67.576875 -49.98632812 66.84375 C-59.42666094 57.91167871 -59.42666094 57.91167871 -59.625 52.25 C-59.41939293 48.341973 -58.91219663 46.32272418 -56.23828125 43.45703125 C-55.6030957 42.77237793 -54.96791016 42.08772461 -54.31347656 41.38232422 C-53.5500293 40.59615723 -52.78658203 39.80999023 -52 39 C-51.33321228 38.31275848 -51.33321228 38.31275848 -50.6529541 37.6116333 C-47.53940978 34.41340879 -44.39240828 31.24993403 -41.23022461 28.09985352 C-39.56573723 26.4407268 -37.90666553 24.77631949 -36.24804688 23.11132812 C-30.67023184 17.53002239 -25.01377183 12.11393742 -19 7 C-18.20851563 6.26910156 -17.41703125 5.53820312 -16.6015625 4.78515625 C-11.43529648 0.282541 -6.86559058 -1.7791594 0 0 Z " fill="#273132" transform="translate(766,396)"/>
<path d="M0 0 C1.01771484 0.00451172 2.03542969 0.00902344 3.08398438 0.01367188 C5.57688509 0.02537563 8.06966074 0.04177152 10.5625 0.0625 C10.01971237 3.3410499 9.33548462 5.85457987 7.5859375 8.6796875 C6.96162842 9.69699951 6.96162842 9.69699951 6.32470703 10.73486328 C5.86692871 11.4617334 5.40915039 12.18860352 4.9375 12.9375 C4.22182861 14.09161377 4.22182861 14.09161377 3.49169922 15.26904297 C-1.89009212 23.89254803 -7.47177091 32.38875059 -13.0546875 40.8828125 C-13.62928711 41.76743164 -14.20388672 42.65205078 -14.79589844 43.56347656 C-15.83757059 45.14922257 -16.90105422 46.72102053 -17.99316406 48.27246094 C-21.00959902 52.6837056 -22.36358928 55.56495088 -21.4375 61.0625 C-20.07703329 64.61535773 -18.39363104 67.94742731 -16.625 71.3125 C-16.17318359 72.2096875 -15.72136719 73.106875 -15.25585938 74.03125 C-12.5387375 79.5609351 -12.5387375 79.5609351 -8.4375 84.0625 C0.6792503 85.69182372 13.70222155 87.01592615 22.5625 84.0625 C23.67238002 82.2009322 23.67238002 82.2009322 24.5625 80.0625 C26.10414414 77.41973549 27.74397923 74.83837111 29.375 72.25 C29.87547852 71.45553467 30.37595703 70.66106934 30.89160156 69.8425293 C39.46260788 56.37505449 48.56126928 43.24431919 57.5625 30.0625 C59.46264648 30.39135742 59.46264648 30.39135742 61.5625 31.0625 C63.16015625 33.80078125 63.16015625 33.80078125 64.625 37.375 C64.88176514 38.00075928 65.13853027 38.62651855 65.40307617 39.27124023 C67.70736592 45.06160059 69.29879412 50.9621644 70.5625 57.0625 C70.74554687 57.81789063 70.92859375 58.57328125 71.1171875 59.3515625 C74.30706344 78.77063182 69.58139489 97.89838227 58.53125 114.02734375 C51.09942859 123.62677974 42.2767297 131.0212844 31.5 136.5 C30.87601318 136.81799561 30.25202637 137.13599121 29.60913086 137.46362305 C21.12342692 141.52875535 12.23480006 143.24175372 2.9597168 144.44165039 C-22.02778595 147.68880006 -35.39212047 160.68074191 -52.5859375 177.98046875 C-53.89543584 179.29116366 -55.20530899 180.6014842 -56.51553345 181.91145325 C-59.23629225 184.63376142 -61.95370577 187.35934766 -64.66845703 190.08764648 C-68.12947518 193.56572858 -71.59711528 197.03711588 -75.06705284 200.50629711 C-77.76294895 203.2024663 -80.45622278 205.9012422 -83.14863968 208.60088539 C-84.42615782 209.88155927 -85.7042592 211.16165164 -86.98298264 212.44112206 C-92.77121505 218.23644981 -98.51499091 224.00324278 -103.83413696 230.23799133 C-106.96738498 233.80339607 -110.37606134 237.10194814 -113.75 240.4375 C-114.9088269 241.59064697 -114.9088269 241.59064697 -116.09106445 242.76708984 C-119.36126036 246.0210983 -122.6374349 249.26906266 -125.91308594 252.51757812 C-128.31915285 254.90545352 -130.72213038 257.29640793 -133.125 259.6875 C-133.85436768 260.40856934 -134.58373535 261.12963867 -135.33520508 261.87255859 C-139.35512599 265.87344535 -143.17004496 269.9610127 -146.80786133 274.31396484 C-148.53711066 276.16937814 -150.36990228 277.60100459 -152.4375 279.0625 C-162.71374442 264.11523539 -170.86583639 243.21792444 -172.4375 225.0625 C-172.51300583 224.40646286 -172.58851166 223.75042572 -172.66630554 223.07450867 C-172.95867465 218.75858237 -172.87974064 215.94725725 -169.97827148 212.59741211 C-168.86101923 211.4882746 -167.71947155 210.40323518 -166.55859375 209.33984375 C-165.95370621 208.75006241 -165.34881866 208.16028107 -164.7256012 207.55262756 C-162.79561125 205.67932131 -160.83716811 203.83951751 -158.875 202 C-156.94504803 200.15041227 -155.02148502 198.29439926 -153.09938049 196.43666077 C-151.90547267 195.287184 -150.70594947 194.14349713 -149.49961853 193.00706482 C-146.53426729 190.19592261 -143.74684727 187.32236892 -141.08129883 184.22387695 C-137.05398754 179.54981205 -132.71138909 175.22884619 -128.328125 170.890625 C-127.4794989 170.04578552 -126.6308728 169.20094604 -125.75653076 168.33050537 C-123.06928146 165.65538226 -120.37880411 162.98354335 -117.6875 160.3125 C-114.12732972 156.77892178 -110.57048168 153.24204784 -107.015625 149.703125 C-106.19999084 148.89578918 -105.38435669 148.08845337 -104.54400635 147.25665283 C-103.78601746 146.50196716 -103.02802856 145.74728149 -102.24707031 144.96972656 C-101.58201477 144.30990784 -100.91695923 143.65008911 -100.23175049 142.97027588 C-98.37668231 141.08138707 -98.37668231 141.08138707 -96.82440186 138.81829834 C-96.36672424 138.23888489 -95.90904663 137.65947144 -95.4375 137.0625 C-94.7775 137.0625 -94.1175 137.0625 -93.4375 137.0625 C-93.17582031 136.46953125 -92.91414063 135.8765625 -92.64453125 135.265625 C-91.3731592 132.94506242 -90.06956431 131.58890908 -88.125 129.8125 C-79.41437845 121.24645308 -75.32002835 110.53760864 -75.1184082 98.32983398 C-75.09840625 91.96282699 -75.09840625 91.96282699 -75.93530273 85.66748047 C-78.64525027 71.61053336 -77.48382279 56.00741981 -71.4375 43.0625 C-71.0146875 42.09699219 -70.591875 41.13148438 -70.15625 40.13671875 C-66.30656883 32.22472866 -60.58542269 26.22814005 -54.4375 20.0625 C-53.79039062 19.3921875 -53.14328125 18.721875 -52.4765625 18.03125 C-38.43575404 4.5422637 -18.86229247 -0.15953793 0 0 Z " fill="#2E3939" transform="translate(592.4375,414.9375)"/>
<path d="M0 0 C2.87556264 1.30732011 4.97103155 2.71011166 7.22387695 4.91748047 C7.82742508 5.5050412 8.43097321 6.09260193 9.05281067 6.69796753 C9.69151596 7.33131012 10.33022125 7.96465271 10.98828125 8.6171875 C11.65087448 9.27075226 12.31346771 9.92431702 12.99613953 10.59768677 C14.39150009 11.97856348 15.78408609 13.36224874 17.17407227 14.74853516 C19.31009554 16.872609 21.46405887 18.97731909 23.61914062 21.08203125 C24.97249898 22.42593144 26.32475167 23.7709462 27.67578125 25.1171875 C28.3246077 25.74648163 28.97343414 26.37577576 29.641922 27.0241394 C30.22970932 27.61800446 30.81749664 28.21186951 31.4230957 28.82373047 C31.94619827 29.34176239 32.46930084 29.85979431 33.008255 30.39352417 C34 32 34 32 33.80705261 34.01126099 C32.45994289 37.3308087 29.98325348 39.79635818 27.625 42.4375 C26.52691669 43.69233475 25.42927003 44.94755172 24.33203125 46.203125 C23.77467285 46.83669922 23.21731445 47.47027344 22.64306641 48.12304688 C20.16755799 50.95093821 17.73726475 53.81609081 15.3125 56.6875 C14.85681641 57.22576416 14.40113281 57.76402832 13.93164062 58.31860352 C11.1253955 61.64117756 8.36440413 64.99690056 5.625 68.375 C1.49933962 73.44366847 -2.76674927 78.37922043 -7.05761719 83.30761719 C-11.97585625 88.95915223 -16.82184277 94.66862037 -21.6484375 100.3984375 C-23.0331547 102.03928736 -24.42218891 103.67638805 -25.8125 105.3125 C-30.83237768 111.22263656 -35.79220007 117.17327438 -40.6875 123.1875 C-43.72367366 126.88014364 -46.8184997 130.52121788 -49.9140625 134.1640625 C-53.55859407 138.46013044 -57.1278734 142.81368341 -60.68359375 147.18359375 C-63.27787476 150.33785447 -65.91616742 153.45193827 -68.5625 156.5625 C-72.36216078 161.03299475 -76.07516611 165.55697197 -79.71875 170.15625 C-82.71117283 173.88653051 -85.76374975 177.56571953 -88.8125 181.25 C-93.17758978 186.52849729 -97.48264454 191.84299302 -101.6875 197.25 C-106.17329233 203.01732909 -110.8374035 208.61130291 -115.58984375 214.16015625 C-117.98877727 216.91209045 -117.98877727 216.91209045 -119.9140625 219.6484375 C-130.77474693 231.89213044 -153.60951836 234.70085525 -169 236 C-199.80269518 237.59865241 -199.80269518 237.59865241 -209 233 C-207.35584655 228.91422945 -204.43208005 226.06546066 -201.4375 222.9375 C-197.67544857 218.94262896 -194.04552236 214.92158834 -190.625 210.625 C-185.79520203 204.60537954 -180.51232295 199.0492777 -175.22265625 193.4375 C-172.32430929 190.35960942 -169.52046357 187.21519825 -166.76171875 184.01171875 C-163.95894003 180.81120646 -161.06702469 177.69235428 -158.18676758 174.56176758 C-155.27166704 171.39166422 -152.37593864 168.2057954 -149.5 165 C-141.77157951 156.39923576 -133.93408464 147.91087471 -126 139.5 C-116.19229279 129.10180054 -106.50777592 118.62038401 -97.22265625 107.75 C-91.23949764 100.74668031 -85.19727363 93.81587626 -79 87 C-72.7658756 80.10389723 -72.7658756 80.10389723 -66.625 73.125 C-63.17283922 69.15902924 -59.61249119 65.29482354 -56.05175781 61.42675781 C-52.89550293 57.99245708 -49.79792941 54.5157942 -46.7421875 50.9921875 C-44.68499601 48.63979365 -42.59403085 46.31965034 -40.5 44 C-37.23977745 40.38732096 -34.01856435 36.74511009 -30.82421875 33.07421875 C-27.95736798 29.81448051 -25.03411516 26.60589216 -22.11328125 23.39453125 C-20.63169396 21.71576414 -19.21668607 19.97698345 -17.85546875 18.19921875 C-17.24316406 17.47347656 -16.63085938 16.74773438 -16 16 C-15.34 16 -14.68 16 -14 16 C-13.79632812 15.46890625 -13.59265625 14.9378125 -13.3828125 14.390625 C-11.40494391 10.97125896 -8.69673101 8.48662079 -5.875 5.75 C-5.31167969 5.19570313 -4.74835938 4.64140625 -4.16796875 4.0703125 C-2.78313972 2.70895515 -1.39216796 1.35385141 0 0 Z " fill="#EE6F3E" transform="translate(777,550)"/>
<path d="M0 0 C3.3221347 1.4623392 5.69313983 3.30806606 8.3125 5.8125 C9.03050781 6.47894531 9.74851562 7.14539063 10.48828125 7.83203125 C12 10 12 10 11.96484375 12.35546875 C10.76062662 15.65609627 9.10548611 18.53630907 7.25 21.5 C6.86166992 22.13075439 6.47333984 22.76150879 6.07324219 23.41137695 C5.20525655 24.81975257 4.33431436 26.22630894 3.4609375 27.63134766 C1.84848554 30.24565396 0.26734215 32.87758679 -1.3125 35.51171875 C-2.45783173 37.40394953 -3.60366185 39.29587875 -4.75 41.1875 C-5.29237305 42.09628906 -5.83474609 43.00507812 -6.39355469 43.94140625 C-10.86416601 51.25246124 -15.20316235 54.8472895 -23 58.4375 C-28.00111055 60.76021406 -31.18862367 63.05502904 -35 67 C-36.68443577 68.67364024 -38.36934978 70.34679926 -40.0546875 72.01953125 C-41.50088274 73.45834458 -42.94659145 74.89764481 -44.39208984 76.3371582 C-45.376212 77.31625767 -46.36123062 78.29445695 -47.34716797 79.27172852 C-52.47249724 84.35339059 -57.48125937 89.47036399 -62.17626953 94.95581055 C-66.93681368 100.2918261 -72.17151228 105.20444705 -77.26171875 110.22265625 C-81.87295768 114.79397103 -86.33659912 119.40579579 -90.56054688 124.33789062 C-92.28224194 126.32589944 -94.10849902 128.17372319 -96 130 C-98.73764476 132.71090995 -101.41168758 135.45805062 -104 138.3125 C-104.5775 138.94800781 -105.155 139.58351563 -105.75 140.23828125 C-107.28933471 142.04775977 -107.28933471 142.04775977 -107 145 C-105.10507344 147.18433172 -105.10507344 147.18433172 -102.6875 149.375 C-99.49660338 152.36550215 -96.95475247 155.05876206 -95 159 C-95.09882745 164.4355095 -96.50464149 167.86075966 -100 172 C-105.62435036 176.52393399 -110.68536093 176.34242405 -117.74609375 176.671875 C-123.21066211 177.22292391 -125.29882088 179.29882088 -129.125 183.125 C-132.93885207 188.9729065 -134.86044851 195.12530238 -136.1875 201.9375 C-138.49500305 211.70676562 -146.11675101 218.32742405 -153.10546875 225.109375 C-154.98239843 226.98243472 -156.71321569 228.92385304 -158.4375 230.9375 C-161.00665271 233.92801716 -163.69317256 236.73116684 -166.5 239.5 C-169.28621141 242.2485599 -171.95308392 245.02859791 -174.5 248 C-175.66341444 249.33617204 -176.83030888 250.66931913 -178 252 C-179.10021484 253.25490234 -179.10021484 253.25490234 -180.22265625 254.53515625 C-180.99480469 255.36917969 -181.76695312 256.20320313 -182.5625 257.0625 C-183.26503906 257.83722656 -183.96757813 258.61195313 -184.69140625 259.41015625 C-187 261 -187 261 -189.6484375 261.02734375 C-194.33143033 259.59188091 -198.65443723 257.62355485 -203.0625 255.5 C-203.99626465 255.05148682 -204.9300293 254.60297363 -205.89208984 254.14086914 C-213.49462365 250.40535672 -220.29464511 246.20306226 -227 241 C-228.47726562 239.87078125 -228.47726562 239.87078125 -229.984375 238.71875 C-244.01189666 227.64838155 -244.01189666 227.64838155 -245.8125 221 C-243.20668686 211.3785361 -232.69822858 203.02961808 -225.96191406 196.07617188 C-223.72560509 193.76245445 -221.51185076 191.42849917 -219.30371094 189.08789062 C-215.80659129 185.38470024 -212.27657808 181.71502037 -208.72940063 178.05978394 C-207.30121078 176.57861398 -205.88275906 175.08798291 -204.47494507 173.58743286 C-195.95423798 164.52573251 -188.76852694 158.30557566 -176.60644531 155.03735352 C-170.0695602 153.15709188 -165.79837793 149.92132011 -162.5 144 C-161.01209353 140.57847057 -160.5532414 137.75277225 -161 134 C-161.33 133.34 -161.66 132.68 -162 132 C-162.62355641 126.83338973 -162.41593046 123.98291353 -159.375 119.6875 C-156.57478237 116.37162457 -154.25227578 114.25066935 -150 113 C-140.75570124 112.29967434 -134.62660757 117.70877407 -127.9375 123.375 C-126.968125 124.24125 -125.99875 125.1075 -125 126 C-123.80903249 124.83687329 -122.62247296 123.66923328 -121.4375 122.5 C-120.44556641 121.52546875 -120.44556641 121.52546875 -119.43359375 120.53125 C-117.47326186 118.4922531 -115.62694553 116.42442298 -113.78515625 114.28125 C-109.0311848 108.80732768 -103.83850047 103.79087462 -98.671875 98.7109375 C-94.49299119 94.57469536 -90.51151504 90.36103708 -86.6796875 85.90234375 C-83.93080522 82.78907475 -80.9664603 79.9040258 -78 77 C-73.7652759 72.81396361 -69.67131417 68.60954206 -65.83984375 64.046875 C-63.83548391 61.81697148 -61.7102689 59.7622797 -59.55029297 57.68481445 C-52.81381135 51.16961901 -48.28319014 44.71369354 -44.18359375 36.25390625 C-40.27988102 28.33095186 -37.03675227 23.12443298 -29 19 C-26.5949983 17.59662372 -24.20052982 16.18153891 -21.8125 14.75 C-20.86286377 14.18865356 -20.86286377 14.18865356 -19.89404297 13.6159668 C-12.97243006 9.48302384 -6.48170946 4.78388109 0 0 Z " fill="#328292" transform="translate(719,512)"/>
<path d="M0 0 C0 3 0 3 -1 5 C-0.60061233 7.09821215 -0.60061233 7.09821215 0 9 C-0.66 9.33 -1.32 9.66 -2 10 C-1.938125 10.78375 -1.87625 11.5675 -1.8125 12.375 C-1.9053125 13.674375 -1.9053125 13.674375 -2 15 C-2.99 15.66 -3.98 16.32 -5 17 C-6.19232613 19.05003955 -6.19232613 19.05003955 -7 21 C-8.32 20.34 -9.64 19.68 -11 19 C-11 19.66 -11 20.32 -11 21 C-11.99 20.67 -12.98 20.34 -14 20 C-15.67580052 20.97207035 -15.67580052 20.97207035 -17.1875 22.4375 C-18.115625 23.283125 -19.04375 24.12875 -20 25 C-19.01 25.99 -18.02 26.98 -17 28 C-17.33 28.66 -17.66 29.32 -18 30 C-19.32 29.67 -20.64 29.34 -22 29 C-22.33 29.66 -22.66 30.32 -23 31 C-24.2065625 31.680625 -24.2065625 31.680625 -25.4375 32.375 C-28.08268187 33.73688961 -28.08268187 33.73688961 -28.9375 35.9375 C-30.52648215 39.02199477 -33.0949925 40.23173456 -36 42 C-34.65951283 39.06768431 -33.15181514 36.83242887 -31 34.4375 C-30.38125 33.74527344 -29.7625 33.05304687 -29.125 32.33984375 C-25.88835013 28.77595906 -22.65051069 25.21321052 -19.40625 21.65625 C-16.85780603 18.84303263 -14.36039727 15.99038535 -11.87109375 13.125 C-7.9727408 8.697643 -3.97875949 4.35502045 0 0 Z " fill="#E76B3B" transform="translate(724,608)"/>
<path d="M0 0 C1.32 0 2.64 0 4 0 C4.33 0.66 4.66 1.32 5 2 C5.99 2 6.98 2 8 2 C8 2.66 8 3.32 8 4 C7.34 4 6.68 4 6 4 C6.33 5.65 6.66 7.3 7 9 C5.35 9.33 3.7 9.66 2 10 C9.92 10.33 17.84 10.66 26 11 C25.67 11.66 25.34 12.32 25 13 C21.20835009 13.02943124 17.41673021 13.0469419 13.625 13.0625 C12.03365234 13.07506836 12.03365234 13.07506836 10.41015625 13.08789062 C3.87327796 13.1079424 -2.51174824 12.8058078 -9 12 C-9.33 11.01 -9.66 10.02 -10 9 C-8.35 9 -6.7 9 -5 9 C-4.67 7.68 -4.34 6.36 -4 5 C-3.34 5 -2.68 5 -2 5 C-1.34 3.35 -0.68 1.7 0 0 Z " fill="#E57548" transform="translate(583,773)"/>
<path d="M0 0 C0.66 0.33 1.32 0.66 2 1 C1.67 1.66 1.34 2.32 1 3 C1.66 3.33 2.32 3.66 3 4 C3.33 4.99 3.66 5.98 4 7 C5.98 5.68 7.96 4.36 10 3 C8.66059606 5.94741572 7.16010392 8.13407093 4.953125 10.49609375 C4.355 11.13740234 3.756875 11.77871094 3.140625 12.43945312 C2.51671875 13.09880859 1.8928125 13.75816406 1.25 14.4375 C0.6415625 15.09298828 0.033125 15.74847656 -0.59375 16.42382812 C-4.1939786 20.25868701 -7.88440933 23.72393933 -12 27 C-12 24.69 -12 22.38 -12 20 C-11.01 19.67 -10.02 19.34 -9 19 C-9 19.66 -9 20.32 -9 21 C-6.84319615 20.20396516 -6.84319615 20.20396516 -6.3125 18.1875 C-5.97311462 15.81180233 -6.27143659 14.26664171 -7 12 C-5.02 12.99 -3.04 13.98 -1 15 C-1.33 14.01 -1.66 13.02 -2 12 C-1.34 11.01 -0.68 10.02 0 9 C-0.66 8.67 -1.32 8.34 -2 8 C-2.33 8.99 -2.66 9.98 -3 11 C-4.32 10.34 -5.64 9.68 -7 9 C-4.69 6.03 -2.38 3.06 0 0 Z " fill="#317D8C" transform="translate(560,728)"/>
<path d="M0 0 C1 3 1 3 0 6 C0.99 6 1.98 6 3 6 C3.33 4.35 3.66 2.7 4 1 C5.65 0.67 7.3 0.34 9 0 C7.67686177 2.84429716 6.19154797 5.18367314 4.20703125 7.609375 C3.66199951 8.27839844 3.11696777 8.94742188 2.55541992 9.63671875 C1.98025635 10.33410156 1.40509277 11.03148437 0.8125 11.75 C0.22895752 12.46285156 -0.35458496 13.17570313 -0.95581055 13.91015625 C-4.87956275 18.68699298 -8.85235114 23.41496271 -13 28 C-13.66 27.34 -14.32 26.68 -15 26 C-14.34 26 -13.68 26 -13 26 C-13 25.01 -13 24.02 -13 23 C-14.32 22.67 -15.64 22.34 -17 22 C-16.01 20.68 -15.02 19.36 -14 18 C-12.02 18.33 -10.04 18.66 -8 19 C-8 18.01 -8 17.02 -8 16 C-6.68 16 -5.36 16 -4 16 C-3.73067479 11.34947128 -3.73067479 11.34947128 -5 7 C-4.01 7 -3.02 7 -2 7 C-2.66 5.35 -3.32 3.7 -4 2 C-2.68 1.34 -1.36 0.68 0 0 Z " fill="#E76B3A" transform="translate(701,703)"/>
<path d="M0 0 C3.73639216 1.24546405 4.18756513 2.63404953 6 6 C5.34 6 4.68 6 4 6 C3.34 8.31 2.68 10.62 2 13 C1.01 13 0.02 13 -1 13 C-1.66 13.33 -2.32 13.66 -3 14 C-2.67 12.68 -2.34 11.36 -2 10 C-2.66 9.67 -3.32 9.34 -4 9 C-8.38980419 11.09951294 -11.59172917 14.32974482 -14.95703125 17.76171875 C-15.50485764 18.31237503 -16.05268402 18.86303131 -16.61711121 19.43037415 C-18.35368793 21.17808307 -20.08315297 22.93263999 -21.8125 24.6875 C-22.99367666 25.87871544 -24.1753126 27.06947566 -25.35742188 28.25976562 C-28.24362357 31.16793528 -31.12347065 34.08226417 -34 37 C-34 34 -34 34 -32.70922852 32.34846497 C-32.10522217 31.75112045 -31.50121582 31.15377594 -30.87890625 30.53833008 C-30.19820068 29.8578511 -29.51749512 29.17737213 -28.81616211 28.47627258 C-28.07245361 27.74804794 -27.32874512 27.0198233 -26.5625 26.26953125 C-25.80783447 25.51911057 -25.05316895 24.76868988 -24.27563477 23.99552917 C-21.85735329 21.59407604 -19.42886229 19.20324651 -17 16.8125 C-15.36129742 15.18883881 -13.7232676 13.56449833 -12.0859375 11.93945312 C-8.06507255 7.95171262 -4.03577035 3.97265181 0 0 Z " fill="#277280" transform="translate(529,672)"/>
<path d="M0 0 C0.66 0 1.32 0 2 0 C2 0.66 2 1.32 2 2 C1.34 2 0.68 2 0 2 C0.99 3.32 1.98 4.64 3 6 C0.69 6.33 -1.62 6.66 -4 7 C-4.12375 7.7425 -4.2475 8.485 -4.375 9.25 C-4.95486701 11.80141485 -5.73708739 13.7267573 -7 16 C-7.66 16 -8.32 16 -9 16 C-9 16.66 -9 17.32 -9 18 C-8.34 18.33 -7.68 18.66 -7 19 C-7.33 20.32 -7.66 21.64 -8 23 C-8.99 23 -9.98 23 -11 23 C-12.33981486 23.3062434 -13.67511887 23.63451555 -15 24 C-15 22.68 -15 21.36 -15 20 C-14.34 20 -13.68 20 -13 20 C-13 19.34 -13 18.68 -13 18 C-12.34 18 -11.68 18 -11 18 C-11 17.01 -11 16.02 -11 15 C-13.64 17.64 -16.28 20.28 -19 23 C-18.34 24.32 -17.68 25.64 -17 27 C-19.62113708 27 -21.50935112 26.68707555 -24 26 C-18.13626891 19.59375835 -12.26474408 13.19484411 -6.375 6.8125 C-5.85454102 6.24829346 -5.33408203 5.68408691 -4.79785156 5.1027832 C-1.12394681 1.12394681 -1.12394681 1.12394681 0 0 Z " fill="#ED6D3B" transform="translate(671,668)"/>
<path d="M0 0 C0.33 0.66 0.66 1.32 1 2 C0.67 2.99 0.34 3.98 0 5 C0.99 5.33 1.98 5.66 3 6 C2.01 7.98 1.02 9.96 0 12 C-0.66 12 -1.32 12 -2 12 C-2.33 12.99 -2.66 13.98 -3 15 C-2.34 15.66 -1.68 16.32 -1 17 C-2.62490954 17.02698189 -4.24994633 17.04638757 -5.875 17.0625 C-7.23238281 17.07990234 -7.23238281 17.07990234 -8.6171875 17.09765625 C-11 17 -11 17 -13 16 C-11.3383196 11.87582937 -8.37661982 8.93445961 -5.375 5.75 C-4.859375 5.19570313 -4.34375 4.64140625 -3.8125 4.0703125 C-2.54574965 2.7097288 -1.27342185 1.35434163 0 0 Z " fill="#E56A39" transform="translate(581,767)"/>
<path d="M0 0 C0 3 0 3 -1.10095215 4.4617157 C-1.61613403 4.97023575 -2.13131592 5.4787558 -2.66210938 6.00268555 C-3.24271118 6.58306076 -3.82331299 7.16343597 -4.42150879 7.76139832 C-5.05584839 8.38025406 -5.69018799 8.9991098 -6.34375 9.63671875 C-7.30927795 10.59587944 -7.30927795 10.59587944 -8.29431152 11.57441711 C-10.35595596 13.61924143 -12.42777661 15.65340245 -14.5 17.6875 C-15.89781717 19.07027471 -17.29496153 20.45372991 -18.69140625 21.83789062 C-22.11984101 25.23321183 -25.55743964 28.61900414 -29 32 C-31.89884776 28.50007882 -32.31147566 26.56830973 -32 22 C-31.34 22 -30.68 22 -30 22 C-30 21.34 -30 20.68 -30 20 C-29.01 20 -28.02 20 -27 20 C-27 20.99 -27 21.98 -27 23 C-22.11881369 22.56534748 -20.06274491 20.53204888 -16.69921875 17.08984375 C-16.2179805 16.60294571 -15.73674225 16.11604767 -15.24092102 15.61439514 C-13.71342979 14.06460092 -12.20047252 12.50145808 -10.6875 10.9375 C-9.6513209 9.88124806 -8.6142209 8.82589867 -7.57617188 7.77148438 C-5.04003105 5.1913578 -2.51673541 2.5990748 0 0 Z " fill="#1E2927" transform="translate(530,600)"/>
<path d="M0 0 C0.66 0 1.32 0 2 0 C1.59914519 5.20133558 -1.12720272 8.00646178 -4.4375 11.75 C-4.94087891 12.33910156 -5.44425781 12.92820312 -5.96289062 13.53515625 C-9.69552622 17.84776311 -9.69552622 17.84776311 -12 19 C-12.33 17.68 -12.66 16.36 -13 15 C-12.34 15 -11.68 15 -11 15 C-11.66 13.35 -12.32 11.7 -13 10 C-12.38125 9.7525 -11.7625 9.505 -11.125 9.25 C-8.64931313 7.79371361 -8.04874998 6.62187494 -7 4 C-6.01 4.33 -5.02 4.66 -4 5 C-4 4.34 -4 3.68 -4 3 C-2.68 3 -1.36 3 0 3 C0 2.01 0 1.02 0 0 Z " fill="#E56837" transform="translate(753,647)"/>
<path d="M0 0 C0 0.99 0 1.98 0 3 C-1.66666667 4.66666667 -3.33333333 6.33333333 -5 8 C-5.86119134 10.17346568 -5.86119134 10.17346568 -6 12 C-6.66 12 -7.32 12 -8 12 C-8 12.66 -8 13.32 -8 14 C-4.72226496 13.24849977 -4.72226496 13.24849977 -3 10 C-3.33 12.31 -3.66 14.62 -4 17 C-4.66 16.67 -5.32 16.34 -6 16 C-6.33 16.33 -6.66 16.66 -7 17 C-8.32520503 17.68268138 -9.65812182 18.3507041 -11 19 C-11.66 18.34 -12.32 17.68 -13 17 C-13.99 18.32 -14.98 19.64 -16 21 C-16.66 20.67 -17.32 20.34 -18 20 C-4.76595745 4.76595745 -4.76595745 4.76595745 0 0 Z " fill="#E06838" transform="translate(759,569)"/>
<path d="M0 0 C1.65 0.66 3.3 1.32 5 2 C0.59579307 5.61460808 -3.98889805 8.94301943 -8.625 12.25 C-9.388125 12.80429687 -10.15125 13.35859375 -10.9375 13.9296875 C-11.67226563 14.45304687 -12.40703125 14.97640625 -13.1640625 15.515625 C-14.16107178 16.23153809 -14.16107178 16.23153809 -15.17822266 16.96191406 C-17 18 -17 18 -20 18 C-13.40235323 11.91916889 -6.79775623 5.8580664 0 0 Z " fill="#F4F4F0" transform="translate(425,344)"/>
<path d="M0 0 C0.66 0.33 1.32 0.66 2 1 C-2.33333333 5.33333333 -6.66666667 9.66666667 -11 14 C-10.01 14.33 -9.02 14.66 -8 15 C-7.67 16.65 -7.34 18.3 -7 20 C-7.99 20.33 -8.98 20.66 -10 21 C-10.66 21.66 -11.32 22.32 -12 23 C-12.33 22.01 -12.66 21.02 -13 20 C-15.00016466 18.79117904 -15.00016466 18.79117904 -17 18 C-16.67 17.34 -16.34 16.68 -16 16 C-15.34 16 -14.68 16 -14 16 C-13.79632812 15.46890625 -13.59265625 14.9378125 -13.3828125 14.390625 C-11.40494391 10.97125896 -8.69673101 8.48662079 -5.875 5.75 C-5.31167969 5.19570313 -4.74835937 4.64140625 -4.16796875 4.0703125 C-2.78313972 2.70895515 -1.39216796 1.35385141 0 0 Z M-7 15 C-5 16 -5 16 -5 16 Z " fill="#E06938" transform="translate(777,550)"/>
<path d="M0 0 C2.31 0.33 4.62 0.66 7 1 C2.93866463 6.59363406 -1.3791401 11.85963514 -6 17 C-6.103125 16.360625 -6.20625 15.72125 -6.3125 15.0625 C-6.539375 14.381875 -6.76625 13.70125 -7 13 C-7.99 12.67 -8.98 12.34 -10 12 C-9.34 11.01 -8.68 10.02 -8 9 C-4.375 8.3125 -4.375 8.3125 -1 8 C-1 6.68 -1 5.36 -1 4 C-0.7018576 2.65835921 -0.37756808 1.32148827 0 0 Z " fill="#E36A38" transform="translate(798,590)"/>
<path d="M0 0 C0.66 0.33 1.32 0.66 2 1 C1.67 1.66 1.34 2.32 1 3 C1.66 3 2.32 3 3 3 C1.31989309 7.61577758 -0.97914605 11.79145971 -3.375 16.0625 C-3.76171875 16.76955078 -4.1484375 17.47660156 -4.546875 18.20507812 C-6.66633198 21.99236283 -8.69856917 25.09805737 -12 28 C-11.67 25.69 -11.34 23.38 -11 21 C-10.34 21 -9.68 21 -9 21 C-7.2463436 18.66057656 -7.2463436 18.66057656 -6 16 C-6.33 15.34 -6.66 14.68 -7 14 C-6.01 13.67 -5.02 13.34 -4 13 C-4.020625 12.113125 -4.04125 11.22625 -4.0625 10.3125 C-4.00713781 7.37830369 -3.6694266 4.84506304 -3 2 C-2.01 2.33 -1.02 2.66 0 3 C0 2.01 0 1.02 0 0 Z " fill="#2D7884" transform="translate(722,530)"/>
<path d="M0 0 C0.66 0.33 1.32 0.66 2 1 C0.68 1.99 -0.64 2.98 -2 4 C-1.34 2.68 -0.68 1.36 0 0 Z M-6 1 C-5.34 1.33 -4.68 1.66 -4 2 C-4 2.66 -4 3.32 -4 4 C-3.34 4.33 -2.68 4.66 -2 5 C-2 5.99 -2 6.98 -2 8 C-2.33 8.33 -2.66 8.66 -3 9 C0.11608778 10.55944704 0.11608778 10.55944704 4 11 C6.73215882 9.37547313 8.84339245 7.3204835 11 5 C9.39856479 8.33632335 8.01247252 10.74064561 5 13 C-0.39195946 13 -5.21774312 10.28485606 -10 8 C-9.525625 7.21625 -9.05125 6.4325 -8.5625 5.625 C-7.66101977 4.11051322 -6.78820515 2.5764103 -6 1 Z " fill="#2C7582" transform="translate(527,760)"/>
<path d="M0 0 C1.32 1.32 2.64 2.64 4 4 C1.36 9.61 -1.28 15.22 -4 21 C-5.38700022 16.83899935 -4.46151578 13.61982863 -3.6875 9.375 C-3.55666016 8.58609375 -3.42582031 7.7971875 -3.29101562 6.984375 C-2.93371662 4.97521536 -2.47426438 2.98480688 -2 1 C-1.34 0.67 -0.68 0.34 0 0 Z " fill="#F6F6EF" transform="translate(335,270)"/>
<path d="M0 0 C0 3 0 3 -1.5 4.6875 C-1.995 5.120625 -2.49 5.55375 -3 6 C-2.01 6.99 -1.02 7.98 0 9 C-0.33 9.66 -0.66 10.32 -1 11 C-2.32 10.67 -3.64 10.34 -5 10 C-5.33 10.66 -5.66 11.32 -6 12 C-6.804375 12.45375 -7.60875 12.9075 -8.4375 13.375 C-11.08268187 14.73688961 -11.08268187 14.73688961 -11.9375 16.9375 C-13.52648215 20.02199477 -16.0949925 21.23173456 -19 23 C-17.65951283 20.06768431 -16.15181514 17.83242887 -14 15.4375 C-13.39027344 14.75558594 -12.78054688 14.07367187 -12.15234375 13.37109375 C-11.44207031 12.58863281 -10.73179687 11.80617188 -10 11 C-9.11441406 10.02160156 -8.22882812 9.04320312 -7.31640625 8.03515625 C-4.88345229 5.3514222 -2.4432822 2.67433706 0 0 Z " fill="#DB6738" transform="translate(707,627)"/>
<path d="M0 0 C0.5534764 2.07553648 1 3.84365964 1 6 C0.34 6.66 -0.32 7.32 -1 8 C-1.36980013 12.04622502 -1.36980013 12.04622502 1 15 C-3.2742558 13.4169423 -5.26531794 10.49431596 -8 7 C-7.34 7 -6.68 7 -6 7 C-6 6.34 -6 5.68 -6 5 C-5.34 5 -4.68 5 -4 5 C-4 4.01 -4 3.02 -4 2 C-2.68 1.34 -1.36 0.68 0 0 Z " fill="#2D7A89" transform="translate(485,732)"/>
<path d="M0 0 C0.33 1.32 0.66 2.64 1 4 C-1.475 5.485 -1.475 5.485 -4 7 C-3.67 7.99 -3.34 8.98 -3 10 C-2.34 10.33 -1.68 10.66 -1 11 C-2.3125 12.5 -2.3125 12.5 -4 14 C-4.99 14 -5.98 14 -7 14 C-6.67 12.68 -6.34 11.36 -6 10 C-6.99 11.32 -7.98 12.64 -9 14 C-9.66 13.67 -10.32 13.34 -11 13 C-9.46356148 9.31930113 -7.21849055 7.01224796 -4.375 4.25 C-3.55773437 3.45078125 -2.74046875 2.6515625 -1.8984375 1.828125 C-0.95871094 0.92320312 -0.95871094 0.92320312 0 0 Z " fill="#E67042" transform="translate(646,695)"/>
<path d="M0 0 C0.33 1.32 0.66 2.64 1 4 C0.34 4 -0.32 4 -1 4 C-1.66 5.65 -2.32 7.3 -3 9 C-2.34 9 -1.68 9 -1 9 C-1 8.34 -1 7.68 -1 7 C-0.34 7 0.32 7 1 7 C1.125 9.875 1.125 9.875 1 13 C0.34 13.66 -0.32 14.32 -1 15 C-1.33 14.01 -1.66 13.02 -2 12 C-4.8684413 9.89767656 -4.8684413 9.89767656 -8 9 C-6.85459775 7.68712379 -5.70866567 6.37470979 -4.5625 5.0625 C-3.92441406 4.33160156 -3.28632812 3.60070312 -2.62890625 2.84765625 C-1.77458541 1.87860647 -0.91348825 0.91348825 0 0 Z " fill="#F06D3B" transform="translate(686,651)"/>
<path d="M0 0 C0 0.99 0 1.98 0 3 C1.43990623 5.17032476 1.43990623 5.17032476 3 7 C2.01 7.66 1.02 8.32 0 9 C-0.33 8.67 -0.66 8.34 -1 8 C-2.65 9.65 -4.3 11.3 -6 13 C-6.66 12.34 -7.32 11.68 -8 11 C-7.34 10.34 -6.68 9.68 -6 9 C-6.66 8.67 -7.32 8.34 -8 8 C-5.36 5.36 -2.72 2.72 0 0 Z " fill="#297988" transform="translate(602,630)"/>
<path d="M0 0 C3.3221347 1.4623392 5.69313983 3.30806606 8.3125 5.8125 C9.03050781 6.47894531 9.74851562 7.14539063 10.48828125 7.83203125 C12 10 12 10 11.85546875 12.69921875 C11 15 11 15 9 16 C9.144375 15.154375 9.28875 14.30875 9.4375 13.4375 C8.79511745 8.39020851 5.73283825 6.21862074 2 3 C-1.12197478 4.3089572 -1.12197478 4.3089572 -3 7 C-6.0625 7.625 -6.0625 7.625 -9 8 C-6.14723863 5.06799526 -3.34920216 2.35684596 0 0 Z " fill="#30727C" transform="translate(719,512)"/>
<path d="M0 0 C8.36628849 7.05024311 8.36628849 7.05024311 11 10 C11 10.66 11 11.32 11 12 C10.34 12 9.68 12 9 12 C8.67 12.99 8.34 13.98 8 15 C6.02 15 4.04 15 2 15 C2 13.02 2 11.04 2 9 C2.99 9 3.98 9 5 9 C5 9.66 5 10.32 5 11 C5.99 10.67 6.98 10.34 8 10 C7.4225 9.44570313 6.845 8.89140625 6.25 8.3203125 C5.5075 7.59585938 4.765 6.87140625 4 6.125 C2.88625 5.04605469 2.88625 5.04605469 1.75 3.9453125 C0 2 0 2 0 0 Z " fill="#277382" transform="translate(610,656)"/>
<path d="M0 0 C0.98097656 0.0721875 1.96195313 0.144375 2.97265625 0.21875 C12.33599707 0.87404369 21.61344302 1.12137789 31 1 C31 1.66 31 2.32 31 3 C30.01604248 3.03758423 30.01604248 3.03758423 29.01220703 3.07592773 C26.04959817 3.1917326 23.08731969 3.31452886 20.125 3.4375 C19.09246094 3.47681641 18.05992187 3.51613281 16.99609375 3.55664062 C16.00996094 3.59853516 15.02382813 3.64042969 14.0078125 3.68359375 C13.09660645 3.72025146 12.18540039 3.75690918 11.24658203 3.79467773 C8.96516519 3.86577065 8.96516519 3.86577065 7 5 C7 4.34 7 3.68 7 3 C4.69 2.34 2.38 1.68 0 1 C0 0.67 0 0.34 0 0 Z " fill="#161F1E" transform="translate(582,499)"/>
<path d="M0 0 C0.33 1.32 0.66 2.64 1 4 C-0.98 4.99 -0.98 4.99 -3 6 C-3 7.32 -3 8.64 -3 10 C-3.66 10 -4.32 10 -5 10 C-5 10.66 -5 11.32 -5 12 C-6.375 13.5 -6.375 13.5 -8 15 C-8.66 15.66 -9.32 16.32 -10 17 C-10.99 16.67 -11.98 16.34 -13 16 C-11.84371094 14.64455078 -11.84371094 14.64455078 -10.6640625 13.26171875 C-9.65095837 12.07038333 -8.63794212 10.87897317 -7.625 9.6875 C-7.11710938 9.09259766 -6.60921875 8.49769531 -6.0859375 7.88476562 C-5.59609375 7.30791016 -5.10625 6.73105469 -4.6015625 6.13671875 C-4.15119629 5.60780029 -3.70083008 5.07888184 -3.23681641 4.53393555 C-2.07125727 3.08837533 -1.03003696 1.54505544 0 0 Z " fill="#FAF5EC" transform="translate(676,745)"/>
<path d="M0 0 C0.66 0.66 1.32 1.32 2 2 C0.42617053 3.65492374 -1.15942902 5.29866024 -2.75 6.9375 C-3.63171875 7.85402344 -4.5134375 8.77054688 -5.421875 9.71484375 C-7.80176695 11.82429343 -8.9099375 12.66067071 -12 13 C-8.19524578 8.43969176 -4.25030379 4.14910608 0 0 Z " fill="#F6F6EF" transform="translate(516,616)"/>
<path d="M0 0 C0.66 0.99 1.32 1.98 2 3 C2 2.34 2 1.68 2 1 C2.66 1 3.32 1 4 1 C4.33 2.65 4.66 4.3 5 6 C0.25 8 0.25 8 -2 8 C-2 7.01 -2 6.02 -2 5 C-3.32 6.65 -4.64 8.3 -6 10 C-6.66 9.67 -7.32 9.34 -8 9 C-6.85459775 7.68712379 -5.70866567 6.37470979 -4.5625 5.0625 C-3.92441406 4.33160156 -3.28632812 3.60070312 -2.62890625 2.84765625 C-1.77458541 1.87860647 -0.91348825 0.91348825 0 0 Z " fill="#E06939" transform="translate(733,598)"/>
<path d="M0 0 C0 3 0 3 -2.1875 5.48046875 C-3.115625 6.37378906 -4.04375 7.26710938 -5 8.1875 C-5.928125 9.08855469 -6.85625 9.98960937 -7.8125 10.91796875 C-8.534375 11.60503906 -9.25625 12.29210937 -10 13 C-10.66 12.01 -11.32 11.02 -12 10 C-11.34 9.34 -10.68 8.68 -10 8 C-10.66 6.68 -11.32 5.36 -12 4 C-11.34 3.67 -10.68 3.34 -10 3 C-7.375 3.9375 -7.375 3.9375 -5 5 C-3.35 3.35 -1.7 1.7 0 0 Z " fill="#297481" transform="translate(672,588)"/>
<path d="M0 0 C0.33 0 0.66 0 1 0 C3.12799643 7.71398704 4.04772051 12.96175777 0.15625 20.23046875 C-1.25054557 22.38343629 -2.76994068 23.72568039 -5 25 C-5 24.01 -5 23.02 -5 22 C-4.34 22 -3.68 22 -3 22 C-2.690625 21.21625 -2.38125 20.4325 -2.0625 19.625 C-1 17 -1 17 0 15 C0.17578161 10.36390094 0.17578161 10.36390094 -0.5625 5.8125 C-1.10021722 3.58481439 -0.69281526 2.15542525 0 0 Z " fill="#DDEBEB" transform="translate(556,638)"/>
<path d="M0 0 C0.33 0.99 0.66 1.98 1 3 C-0.36328125 5.4453125 -0.36328125 5.4453125 -2.3125 8.125 C-3.26576172 9.45917969 -3.26576172 9.45917969 -4.23828125 10.8203125 C-6 13 -6 13 -8 14 C-9.125 9.25 -9.125 9.25 -8 7 C-7.34 7 -6.68 7 -6 7 C-5.67 6.01 -5.34 5.02 -5 4 C-4.34 4.33 -3.68 4.66 -3 5 C-2.01 3.35 -1.02 1.7 0 0 Z " fill="#28312F" transform="translate(655,518)"/>
<path d="M0 0 C1.59134766 -0.02126953 1.59134766 -0.02126953 3.21484375 -0.04296875 C6.0625 0.1875 6.0625 0.1875 9.0625 2.1875 C6.05936252 3.68906874 3.27182478 3.28031204 -0.0625 3.25 C-1.34382812 3.24097656 -2.62515625 3.23195313 -3.9453125 3.22265625 C-5.42644531 3.20525391 -5.42644531 3.20525391 -6.9375 3.1875 C-7.2675 2.5275 -7.5975 1.8675 -7.9375 1.1875 C-5.2264923 -0.16800385 -3.02410831 0.01832793 0 0 Z " fill="#2B2F2C" transform="translate(826.9375,655.8125)"/>
<path d="M0 0 C2.5654594 2.5654594 2.54046087 4.47686668 3 8 C1.68 8 0.36 8 -1 8 C-1 8.66 -1 9.32 -1 10 C-1.99 9.67 -2.98 9.34 -4 9 C-4.33 8.01 -4.66 7.02 -5 6 C-3.59554165 3.7363436 -1.8032087 1.9791315 0 0 Z " fill="#2C7B8B" transform="translate(557,656)"/>
<path d="M0 0 C0.66 0.33 1.32 0.66 2 1 C1.690625 1.9075 1.38125 2.815 1.0625 3.75 C-0.47689013 9.04506536 -0.65820302 14.52225363 -1 20 C-1.66 20 -2.32 20 -3 20 C-3.3689719 12.68889006 -2.81552726 6.78743178 0 0 Z " fill="#131817" transform="translate(270,116)"/>
<path d="M0 0 C1.30324219 -0.02126953 1.30324219 -0.02126953 2.6328125 -0.04296875 C4.875 0.1875 4.875 0.1875 6.875 2.1875 C5.875 3.1875 5.875 3.1875 2.27734375 3.28515625 C0.78903133 3.2784822 -0.69926432 3.26652183 -2.1875 3.25 C-2.94611328 3.24548828 -3.70472656 3.24097656 -4.48632812 3.23632812 C-6.36591871 3.2245068 -8.24546899 3.20657078 -10.125 3.1875 C-9.125 1.1875 -9.125 1.1875 -7.3828125 0.57421875 C-4.88937376 0.14714187 -2.52968328 0.01887823 0 0 Z " fill="#262927" transform="translate(154.125,244.8125)"/>
<path d="M0 0 C1.32 0.66 2.64 1.32 4 2 C3.01 2 2.02 2 1 2 C1.33 3.32 1.66 4.64 2 6 C1.4225 6.103125 0.845 6.20625 0.25 6.3125 C-2.32049158 7.09792798 -3.93657284 8.30504197 -6 10 C-6.66 9.67 -7.32 9.34 -8 9 C-6.85459775 7.68712379 -5.70866567 6.37470979 -4.5625 5.0625 C-3.92441406 4.33160156 -3.28632812 3.60070312 -2.62890625 2.84765625 C-1.77458541 1.87860647 -0.91348825 0.91348825 0 0 Z " fill="#E36835" transform="translate(590,757)"/>
<path d="M0 0 C0 4.07436515 -1.59249018 5.28469467 -4.1875 8.375 C-4.96480469 9.31085937 -5.74210938 10.24671875 -6.54296875 11.2109375 C-8.93101156 13.9216888 -11.41648472 16.47613961 -14 19 C-14.33 18.01 -14.66 17.02 -15 16 C-14.195625 15.38125 -13.39125 14.7625 -12.5625 14.125 C-9.96125481 12.25835959 -9.96125481 12.25835959 -9 10 C-8.34 10 -7.68 10 -7 10 C-6.690625 9.38125 -6.38125 8.7625 -6.0625 8.125 C-5.375 6.75 -4.6875 5.375 -4 4 C-3.34 4 -2.68 4 -2 4 C-1.34 2.68 -0.68 1.36 0 0 Z " fill="#F3F4F1" transform="translate(749,712)"/>
<path d="M0 0 C0.99 0.33 1.98 0.66 3 1 C2.34 1 1.68 1 1 1 C1.226875 1.598125 1.45375 2.19625 1.6875 2.8125 C2 5 2 5 0.875 6.6875 C-1.38936287 8.27255401 -3.28324005 8.63287028 -6 9 C-5.52797514 4.75177626 -3.03344482 2.80010291 0 0 Z " fill="#297786" transform="translate(529,672)"/>
<path d="M0 0 C0.99 0 1.98 0 3 0 C1.43632643 3.52238047 -0.69495889 6.27123994 -3.125 9.25 C-3.84945312 10.14203125 -4.57390625 11.0340625 -5.3203125 11.953125 C-5.87460937 12.62859375 -6.42890625 13.3040625 -7 14 C-7.33 12.68 -7.66 11.36 -8 10 C-7.21625 9.443125 -6.4325 8.88625 -5.625 8.3125 C-2.89137023 5.90430234 -2.1014593 4.39616619 -1 1 C-0.67 0.67 -0.34 0.34 0 0 Z " fill="#DA6535" transform="translate(671,747)"/>
<path d="M0 0 C0 3.69840628 -0.82866944 4.31415433 -3.25 7 C-4.15492188 8.0209375 -4.15492188 8.0209375 -5.078125 9.0625 C-6.93766612 10.93715934 -8.84794211 12.47641919 -11 14 C-11.66 13.67 -12.32 13.34 -13 13 C-8.71 8.71 -4.42 4.42 0 0 Z " fill="#E8E8E3" transform="translate(463,670)"/>
<path d="M0 0 C0 3 0 3 -1.53125 4.82421875 C-2.1809375 5.43910156 -2.830625 6.05398438 -3.5 6.6875 C-4.1496875 7.31011719 -4.799375 7.93273437 -5.46875 8.57421875 C-5.9740625 9.04472656 -6.479375 9.51523437 -7 10 C-7.99 9.01 -8.98 8.02 -10 7 C-9.34 5.68 -8.68 4.36 -8 3 C-6.8553125 3.0928125 -6.8553125 3.0928125 -5.6875 3.1875 C-2.95474688 3.25898085 -2.95474688 3.25898085 -1.1875 1.5 C-0.795625 1.005 -0.40375 0.51 0 0 Z " fill="#287484" transform="translate(626,636)"/>
<path d="M0 0 C0.33 0 0.66 0 1 0 C2.32 6.6 3.64 13.2 5 20 C2 18 2 18 1.33984375 15.6875 C1.20707031 14.800625 1.07429687 13.91375 0.9375 13 C0.42754603 9.04579863 0.42754603 9.04579863 -2 6 C-1.34 4.02 -0.68 2.04 0 0 Z " fill="#E6E7E2" transform="translate(169,465)"/>
<path d="M0 0 C0 5.28 0 10.56 0 16 C-0.99 15.34 -1.98 14.68 -3 14 C-3.29296875 10.9609375 -3.29296875 10.9609375 -3.1875 7.375 C-3.16042969 6.18648438 -3.13335937 4.99796875 -3.10546875 3.7734375 C-3.07066406 2.85820312 -3.03585938 1.94296875 -3 1 C-1 0 -1 0 0 0 Z " fill="#212825" transform="translate(129,266)"/>
<path d="M0 0 C1.33332095 2.6666419 0.67102033 4.16680303 0 7 C0.99 6.67 1.98 6.34 3 6 C3.33 5.34 3.66 4.68 4 4 C4 5.65 4 7.3 4 9 C3.34 9 2.68 9 2 9 C1.67 9.99 1.34 10.98 1 12 C0.01 12.495 0.01 12.495 -1 13 C-2.5635348 9.87293041 -2.39958487 6.42017557 -2 3 C-1.34 2.01 -0.68 1.02 0 0 Z " fill="#28717F" transform="translate(559,633)"/>
<path d="M0 0 C0 3 0 3 -1.49609375 4.82421875 C-2.13675781 5.43910156 -2.77742187 6.05398438 -3.4375 6.6875 C-4.07558594 7.31011719 -4.71367188 7.93273437 -5.37109375 8.57421875 C-7 10 -7 10 -8 10 C-8 7.69 -8 5.38 -8 3 C-7.01 2.67 -6.02 2.34 -5 2 C-5 2.66 -5 3.32 -5 4 C-3.35 2.68 -1.7 1.36 0 0 Z " fill="#287383" transform="translate(556,745)"/>
<path d="M0 0 C0 3 0 3 -1.53125 4.82421875 C-2.50578125 5.74654297 -2.50578125 5.74654297 -3.5 6.6875 C-4.1496875 7.31011719 -4.799375 7.93273437 -5.46875 8.57421875 C-5.9740625 9.04472656 -6.479375 9.51523437 -7 10 C-6.34 11.32 -5.68 12.64 -5 14 C-7.62113708 14 -9.50935112 13.68707555 -12 13 C-10.18777319 11.02058257 -8.37523172 9.04145495 -6.5625 7.0625 C-6.04623047 6.49853516 -5.52996094 5.93457031 -4.99804688 5.35351562 C-1.11328125 1.11328125 -1.11328125 1.11328125 0 0 Z " fill="#D76333" transform="translate(659,681)"/>
<path d="M0 0 C0.33 0.99 0.66 1.98 1 3 C0.01 3.495 0.01 3.495 -1 4 C-0.67 2.68 -0.34 1.36 0 0 Z M-3 3 C-2.34 3.66 -1.68 4.32 -1 5 C-1.375 7.125 -1.375 7.125 -2 9 C-2.99 9 -3.98 9 -5 9 C-5.66 9.66 -6.32 10.32 -7 11 C-7.99 10.67 -8.98 10.34 -10 10 C-7.69 7.69 -5.38 5.38 -3 3 Z " fill="#343E3F" transform="translate(433,620)"/>
<path d="M0 0 C2.31 0.33 4.62 0.66 7 1 C5.33248852 4.94139078 2.77289351 7.7892812 0 11 C0 9.33333333 0 7.66666667 0 6 C0.99 6 1.98 6 3 6 C2.01 4.02 1.02 2.04 0 0 Z " fill="#DF6837" transform="translate(727,673)"/>
<path d="M0 0 C0.66 0 1.32 0 2 0 C1.67 3.63 1.34 7.26 1 11 C0.01 11.33 -0.98 11.66 -2 12 C-1.85962479 10.18706911 -1.71255111 8.3746557 -1.5625 6.5625 C-1.48128906 5.55316406 -1.40007813 4.54382813 -1.31640625 3.50390625 C-1 1 -1 1 0 0 Z " fill="#282C29" transform="translate(522,99)"/>
<path d="M0 0 C0.74609375 1.734375 0.74609375 1.734375 1 4 C-0.65234375 6.140625 -0.65234375 6.140625 -2.9375 8.25 C-3.68902344 8.95640625 -4.44054687 9.6628125 -5.21484375 10.390625 C-5.80394531 10.92171875 -6.39304687 11.4528125 -7 12 C-7.66 11.01 -8.32 10.02 -9 9 C-8.01 8.67 -7.02 8.34 -6 8 C-6 7.34 -6 6.68 -6 6 C-5.34 6 -4.68 6 -4 6 C-3.71125 5.38125 -3.4225 4.7625 -3.125 4.125 C-2 2 -2 2 0 0 Z " fill="#357B88" transform="translate(546,754)"/>
<path d="M0 0 C0.6875 1.6875 0.6875 1.6875 1 4 C0.04906703 5.69514137 -0.95107762 7.36368108 -2 9 C-2 9.99 -2 10.98 -2 12 C-3.32 11.34 -4.64 10.68 -6 10 C-5.34 10 -4.68 10 -4 10 C-4 7.36 -4 4.72 -4 2 C-2.68 1.34 -1.36 0.68 0 0 Z " fill="#2C7C8B" transform="translate(517,754)"/>
<path d="M0 0 C0 0.66 0 1.32 0 2 C-0.66 2 -1.32 2 -2 2 C-1.01 3.32 -0.02 4.64 1 6 C-0.051875 6.0825 -1.10375 6.165 -2.1875 6.25 C-6.27047209 7.05320762 -8.0122727 8.19334709 -11 11 C-9.60249952 7.84164893 -7.94801766 5.67727175 -5.5 3.25 C-4.8915625 2.63640625 -4.283125 2.0228125 -3.65625 1.390625 C-2 0 -2 0 0 0 Z " fill="#DC6533" transform="translate(673,668)"/>
<path d="M0 0 C-0.33 0.99 -0.66 1.98 -1 3 C-1.66 3 -2.32 3 -3 3 C-3.268125 3.639375 -3.53625 4.27875 -3.8125 4.9375 C-5 7 -5 7 -8 8 C-9.20882096 10.00016466 -9.20882096 10.00016466 -10 12 C-10.66 11.34 -11.32 10.68 -12 10 C-10.38113585 8.32737283 -8.7547271 6.66204463 -7.125 5 C-6.22007812 4.071875 -5.31515625 3.14375 -4.3828125 2.1875 C-2 0 -2 0 0 0 Z " fill="#ECF4F1" transform="translate(645,620)"/>
<path d="M0 0 C1.12588014 0.95729916 2.2506715 1.91587895 3.375 2.875 C4.00148438 3.40867187 4.62796875 3.94234375 5.2734375 4.4921875 C6.55836651 5.61432007 7.79371975 6.79371975 9 8 C8.67 8.99 8.34 9.98 8 11 C4.90861299 8.93907533 3.59754442 7.3015918 2 4 C1.01 3.34 0.02 2.68 -1 2 C-0.67 1.34 -0.34 0.68 0 0 Z M-4 2 C-3.01 2.33 -2.02 2.66 -1 3 C-1.66 3.66 -2.32 4.32 -3 5 C-3.33 4.01 -3.66 3.02 -4 2 Z " fill="#F27E4D" transform="translate(802,574)"/>
<path d="M0 0 C0.33 0 0.66 0 1 0 C1.33 6.93 1.66 13.86 2 21 C1.01 21.33 0.02 21.66 -1 22 C-1.12886183 14.59760355 -0.79725902 7.36040917 0 0 Z " fill="#D5D6D1" transform="translate(515,479)"/>
<path d="M0 0 C0.33 0 0.66 0 1 0 C1.33 5.94 1.66 11.88 2 18 C-0.722168 13.91674801 -1.52044781 9.85739956 -2 5 C-1.125 1.875 -1.125 1.875 0 0 Z " fill="#EDEDE9" transform="translate(239,391)"/>
<path d="M0 0 C0.33 0.99 0.66 1.98 1 3 C-3.26311718 7.12989477 -6.28758534 7.61271765 -12 8 C-8.21087559 5.00027651 -4.11168168 2.52489191 0 0 Z " fill="#EFEFEA" transform="translate(660,948)"/>
<path d="M0 0 C2.49118953 3.7367843 2.2065226 5.74451819 2.125 10.1875 C2.10695312 11.45980469 2.08890625 12.73210937 2.0703125 14.04296875 C2.03550781 15.50669922 2.03550781 15.50669922 2 17 C-0.72056375 13.91430796 -1.37356749 12.03376231 -1.25 7.9375 C-1.23453125 7.08027344 -1.2190625 6.22304688 -1.203125 5.33984375 C-1 3 -1 3 0 0 Z " fill="#262C2A" transform="translate(239,364)"/>
<path d="M0 0 C1.69141656 0.08963062 3.37959602 0.24577676 5.0625 0.4375 C6.44115234 0.59025391 6.44115234 0.59025391 7.84765625 0.74609375 C8.55792969 0.82988281 9.26820313 0.91367187 10 1 C6.6615409 3.70705488 4.29625631 4.51178906 0 5 C-0.5625 3.0625 -0.5625 3.0625 -1 1 C-0.67 0.67 -0.34 0.34 0 0 Z " fill="#297787" transform="translate(688,567)"/>
<path d="M0 0 C1.20628008 2.33214148 2.1654738 4.49642139 3 7 C2.22265625 9.26171875 2.22265625 9.26171875 1.0625 11.6875 C0.68222656 12.49574219 0.30195313 13.30398438 -0.08984375 14.13671875 C-0.39019531 14.75160156 -0.69054687 15.36648438 -1 16 C-2.22602512 12.32192463 -1.70295577 10.11756073 -1.0625 6.3125 C-0.86785156 5.13300781 -0.67320312 3.95351563 -0.47265625 2.73828125 C-0.31667969 1.83464844 -0.16070312 0.93101562 0 0 Z " fill="#EAEAE6" transform="translate(332,275)"/>
<path d="M0 0 C3.75345656 0.71971619 6.86091969 2.33112202 10.25 4.0625 C11.32765625 4.61035156 12.4053125 5.15820312 13.515625 5.72265625 C14.74539063 6.35494141 14.74539063 6.35494141 16 7 C16 7.33 16 7.66 16 8 C11.37292612 8.46524509 9.00258819 7.10078492 5.1875 4.5625 C3.72376953 3.60537109 3.72376953 3.60537109 2.23046875 2.62890625 C1.49441406 2.09136719 0.75835937 1.55382812 0 1 C0 0.67 0 0.34 0 0 Z " fill="#E3EFEF" transform="translate(501,760)"/>
<path d="M0 0 C0.99 0.33 1.98 0.66 3 1 C-0.16952847 4.26008643 -3.39937989 7.22237877 -7 10 C-7.66 9.67 -8.32 9.34 -9 9 C-6.03 6.03 -3.06 3.06 0 0 Z " fill="#21707D" transform="translate(487,715)"/>
<path d="M0 0 C0 0.66 0 1.32 0 2 C-3.7367843 4.49118953 -5.74451819 4.2065226 -10.1875 4.125 C-11.45980469 4.10695313 -12.73210938 4.08890625 -14.04296875 4.0703125 C-15.50669922 4.03550781 -15.50669922 4.03550781 -17 4 C-17 3.67 -17 3.34 -17 3 C-14.02148438 2.65820312 -14.02148438 2.65820312 -11.04296875 2.31640625 C-8.80603607 2.02829265 -8.80603607 2.02829265 -6 1 C-3.90170055 0.42773651 -2.17877079 0 0 0 Z " fill="#DBDCD7" transform="translate(615,497)"/>
<path d="M0 0 C0.33 0.99 0.66 1.98 1 3 C3.31 3 5.62 3 8 3 C8 3.33 8 3.66 8 4 C3.38 4.33 -1.24 4.66 -6 5 C-6.33 4.01 -6.66 3.02 -7 2 C-5.02 2 -3.04 2 -1 2 C-0.67 1.34 -0.34 0.68 0 0 Z " fill="#252C2A" transform="translate(595,377)"/>
<path d="M0 0 C0.66 0 1.32 0 2 0 C4.17935819 4.54032956 5.59873581 7.85087206 5 13 C4.34 13.66 3.68 14.32 3 15 C2.01 10.05 1.02 5.1 0 0 Z " fill="#EFEFEB" transform="translate(339,129)"/>
<path d="M0 0 C1.32 0 2.64 0 4 0 C2.73058503 3.91402949 1.48832306 5.79072873 -2 8 C-2.20086443 4.28400809 -2.1519437 3.22791555 0 0 Z " fill="#FAF5EA" transform="translate(580,762)"/>
<path d="M0 0 C0.66 0.33 1.32 0.66 2 1 C1.01347016 4.31832766 0.31268497 5.76548627 -2.5 7.875 C-3.325 8.24625 -4.15 8.6175 -5 9 C-5.66 8.67 -6.32 8.34 -7 8 C-4.69 5.36 -2.38 2.72 0 0 Z " fill="#FBF5EB" transform="translate(749,657)"/>
<path d="M0 0 C0 3.58912412 -0.66436554 4.10857029 -3 6.6875 C-3.556875 7.31011719 -4.11375 7.93273437 -4.6875 8.57421875 C-5.120625 9.04472656 -5.55375 9.51523437 -6 10 C-7 8 -7 8 -6.3125 4.9375 C-5 2 -5 2 -2.9375 1.1875 C-2.298125 1.125625 -1.65875 1.06375 -1 1 C-0.67 0.67 -0.34 0.34 0 0 Z " fill="#DD6737" transform="translate(788,609)"/>
<path d="M0 0 C0.66 0 1.32 0 2 0 C-0.70615034 10.74259681 -0.70615034 10.74259681 -5 14 C-3.45730076 9.27934033 -1.92205381 4.58335908 0 0 Z " fill="#141716" transform="translate(335,280)"/>
<path d="M0 0 C0.66 0.33 1.32 0.66 2 1 C1.01 1.66 0.02 2.32 -1 3 C-0.67 2.01 -0.34 1.02 0 0 Z M-4 5 C-3.34 5.66 -2.68 6.32 -2 7 C-5.465 9.97 -5.465 9.97 -9 13 C-7.95206337 8.80825346 -7.08236365 7.78407039 -4 5 Z " fill="#F3F3EE" transform="translate(768,863)"/>
<path d="M0 0 C0.33 0 0.66 0 1 0 C1 1.65 1 3.3 1 5 C0.34 5 -0.32 5 -1 5 C-0.67 7.64 -0.34 10.28 0 13 C-1.5 11.875 -1.5 11.875 -3 10 C-3.44710264 6.497696 -3.40404695 4.66755584 -1.5625 1.625 C-0.7890625 0.820625 -0.7890625 0.820625 0 0 Z " fill="#2D7481" transform="translate(477,726)"/>
<path d="M0 0 C-1.66751148 3.94139078 -4.22710649 6.7892812 -7 10 C-7.33 8.68 -7.66 7.36 -8 6 C-7.34 6 -6.68 6 -6 6 C-5.87625 5.195625 -5.7525 4.39125 -5.625 3.5625 C-5.41875 2.716875 -5.2125 1.87125 -5 1 C-3 0 -3 0 0 0 Z " fill="#DE6331" transform="translate(710,703)"/>
<path d="M0 0 C0.66 0.33 1.32 0.66 2 1 C1.60167969 1.43570313 1.20335937 1.87140625 0.79296875 2.3203125 C-2.48936831 6.00994686 -4.99399746 9.43077198 -7 14 C-8.30194786 10.09415641 -7.70818927 8.71345493 -6 5 C-4.1170212 3.08205873 -2.17427499 1.60707282 0 0 Z " fill="#296E79" transform="translate(592,690)"/>
<path d="M0 0 C0.66 0.33 1.32 0.66 2 1 C1.54625 1.598125 1.0925 2.19625 0.625 2.8125 C-0.63295913 4.50590652 -1.82984724 6.24477086 -3 8 C-5.625 8.6875 -5.625 8.6875 -8 9 C-7.04270084 7.87411986 -6.08412105 6.7493285 -5.125 5.625 C-4.59132813 4.99851562 -4.05765625 4.37203125 -3.5078125 3.7265625 C-2.38567993 2.44163349 -1.20628025 1.20628025 0 0 Z " fill="#1D2626" transform="translate(449,602)"/>
<path d="M0 0 C1.24546405 2.49092811 0.7767578 3.41080733 0 6 C-2.31 6.66 -4.62 7.32 -7 8 C-6.02133662 6.85373678 -5.04205413 5.70800212 -4.0625 4.5625 C-3.51722656 3.92441406 -2.97195313 3.28632812 -2.41015625 2.62890625 C-1.63204305 1.73008851 -0.84063472 0.84063472 0 0 Z " fill="#2C2F2D" transform="translate(719,748)"/>
<path d="M0 0 C-0.66 1.65 -1.32 3.3 -2 5 C-2.66 5 -3.32 5 -4 5 C-4.66 6.32 -5.32 7.64 -6 9 C-6.66 8.34 -7.32 7.68 -8 7 C-7.525625 6.566875 -7.05125 6.13375 -6.5625 5.6875 C-4.76313043 3.97690387 -4.76313043 3.97690387 -4 1 C-2 0 -2 0 0 0 Z " fill="#F9F1E8" transform="translate(765,561)"/>
<path d="M0 0 C0.66 0.66 1.32 1.32 2 2 C-0.64 3.98 -3.28 5.96 -6 8 C-6.66 7.67 -7.32 7.34 -8 7 C-5.36 4.69 -2.72 2.38 0 0 Z " fill="#DCDDD9" transform="translate(413,355)"/>
<path d="M0 0 C-1.24176695 0.70226141 -2.49385599 1.38629109 -3.75 2.0625 C-4.79414062 2.63677734 -4.79414062 2.63677734 -5.859375 3.22265625 C-8.36140628 4.1312406 -9.5332355 3.88336837 -12 3 C-9.84267191 0.84267191 -8.88177557 0.51705175 -6 -0.1875 C-5.29875 -0.36667969 -4.5975 -0.54585937 -3.875 -0.73046875 C-2 -1 -2 -1 0 0 Z " fill="#131715" transform="translate(608,975)"/>
<path d="M0 0 C0.625 1.8125 0.625 1.8125 1 4 C-1.21934164 7.32901247 -2.34683329 7.75023244 -6 9 C-4.47291037 5.56404834 -2.40072955 2.88087546 0 0 Z " fill="#FAF5EC" transform="translate(718,694)"/>
<path d="M0 0 C0.33 0 0.66 0 1 0 C1.33 3.96 1.66 7.92 2 12 C1.01 12.33 0.02 12.66 -1 13 C-2.07310858 9.72814447 -1.89263102 7.57052408 -1.0625 4.25 C-0.86785156 3.45078125 -0.67320312 2.6515625 -0.47265625 1.828125 C-0.31667969 1.22484375 -0.16070313 0.6215625 0 0 Z " fill="#364140" transform="translate(661,489)"/>
<path d="M0 0 C0.33 0.99 0.66 1.98 1 3 C-3.75 7.875 -3.75 7.875 -6 9 C-4.68775452 5.06326356 -3.08089673 2.77280706 0 0 Z " fill="#ECF2EF" transform="translate(568,734)"/>
<path d="M0 0 C2 2 2 2 2.1953125 4.3828125 C2.17210937 5.28773438 2.14890625 6.19265625 2.125 7.125 C2.10695312 8.03507813 2.08890625 8.94515625 2.0703125 9.8828125 C2.03550781 10.93082031 2.03550781 10.93082031 2 12 C0.515625 10.72265625 0.515625 10.72265625 -1 9 C-1.43076923 2.86153846 -1.43076923 2.86153846 0 0 Z " fill="#28302D" transform="translate(182,677)"/>
<path d="M0 0 C0.99 0.33 1.98 0.66 3 1 C-1.455 4.465 -1.455 4.465 -6 8 C-6.66 7.34 -7.32 6.68 -8 6 C-6.7391988 4.96680187 -5.46596742 3.94875621 -4.1875 2.9375 C-3.47980469 2.36902344 -2.77210938 1.80054688 -2.04296875 1.21484375 C-1.36878906 0.81394531 -0.69460938 0.41304687 0 0 Z " fill="#E8E9E5" transform="translate(793,666)"/>
<path d="M0 0 C0.33 1.32 0.66 2.64 1 4 C0.21625 4.433125 -0.5675 4.86625 -1.375 5.3125 C-4.21698375 6.89220247 -4.21698375 6.89220247 -6 10 C-6.66 9.67 -7.32 9.34 -8 9 C-6.85459775 7.68712379 -5.70866567 6.37470979 -4.5625 5.0625 C-3.92441406 4.33160156 -3.28632812 3.60070312 -2.62890625 2.84765625 C-1.77458541 1.87860647 -0.91348825 0.91348825 0 0 Z " fill="#D46231" transform="translate(686,651)"/>
<path d="M0 0 C3 2 3 2 3.6875 4.625 C3.8421875 5.800625 3.8421875 5.800625 4 7 C3.01 7.66 2.02 8.32 1 9 C0.67 6.03 0.34 3.06 0 0 Z " fill="#ECEBE7" transform="translate(396,637)"/>
<path d="M0 0 C0.99 0.33 1.98 0.66 3 1 C1.35830472 3.02054804 -0.30911778 5.02043058 -2 7 C-2.33 7 -2.66 7 -3 7 C-3.1875 4.625 -3.1875 4.625 -3 2 C-2.01 1.34 -1.02 0.68 0 0 Z " fill="#DE6737" transform="translate(778,619)"/>
<path d="M0 0 C0.33 0.99 0.66 1.98 1 3 C1.66 3 2.32 3 3 3 C1.70700306 5.88437779 0.34058637 7.87219421 -2 10 C-2 8.35 -2 6.7 -2 5 C-1.34 5 -0.68 5 0 5 C0 3.35 0 1.7 0 0 Z " fill="#E16836" transform="translate(807,581)"/>
<path d="M0 0 C0.99 0.33 1.98 0.66 3 1 C2.0479279 2.00596297 1.08812654 3.00461563 0.125 4 C-0.40867187 4.556875 -0.94234375 5.11375 -1.4921875 5.6875 C-3 7 -3 7 -5 7 C-3.70700306 4.11562221 -2.34058637 2.12780579 0 0 Z " fill="#F4F4EF" transform="translate(840,567)"/>
<path d="M0 0 C0.99 0.33 1.98 0.66 3 1 C3 1.66 3 2.32 3 3 C3.66 3 4.32 3 5 3 C5 3.66 5 4.32 5 5 C5.99 5.33 6.98 5.66 8 6 C7.67 6.99 7.34 7.98 7 9 C5.82737096 7.88121617 4.66204862 6.75476949 3.5 5.625 C2.8503125 4.99851562 2.200625 4.37203125 1.53125 3.7265625 C0 2 0 2 0 0 Z " fill="#D3D6D2" transform="translate(874,495)"/>
<path d="M0 0 C0.66 0 1.32 0 2 0 C2 0.99 2 1.98 2 3 C2.66 3 3.32 3 4 3 C4.33 5.64 4.66 8.28 5 11 C4.34 11 3.68 11 3 11 C2.01 7.37 1.02 3.74 0 0 Z " fill="#F4F4F1" transform="translate(202,292)"/>
<path d="M0 0 C0.66 0.33 1.32 0.66 2 1 C-0.97 5.95 -0.97 5.95 -4 11 C-5 8 -5 8 -4.00390625 5.95703125 C-3.52824219 5.24933594 -3.05257813 4.54164063 -2.5625 3.8125 C-2.08941406 3.09707031 -1.61632812 2.38164062 -1.12890625 1.64453125 C-0.75636719 1.10183594 -0.38382812 0.55914062 0 0 Z " fill="#E8EAE7" transform="translate(404,153)"/>
<path d="M0 0 C0.66 0.33 1.32 0.66 2 1 C0.02 3.97 -1.96 6.94 -4 10 C-5 7 -5 7 -4.25 4.4375 C-3 2 -3 2 0 0 Z " fill="#F1F2EF" transform="translate(629,474)"/>
<path d="M0 0 C1 2 1 2 0.1875 4.5 C-1 7 -1 7 -3 9 C-3.99 8.67 -4.98 8.34 -6 8 C-5.67 7.34 -5.34 6.68 -5 6 C-4.34 6 -3.68 6 -3 6 C-2.690625 5.195625 -2.38125 4.39125 -2.0625 3.5625 C-1 1 -1 1 0 0 Z " fill="#202625" transform="translate(792,827)"/>
<path d="M0 0 C1.80125336 2.70188004 3.00243753 4.93057703 4 8 C3.67 8.99 3.34 9.98 3 11 C0.82905523 8.82905523 0.5137 7.84247144 -0.1875 4.9375 C-0.36667969 4.22464844 -0.54585938 3.51179687 -0.73046875 2.77734375 C-0.81941406 2.19082031 -0.90835937 1.60429688 -1 1 C-0.67 0.67 -0.34 0.34 0 0 Z " fill="#EFF0EC" transform="translate(427,667)"/>
<path d="M0 0 C1.9078584 3.1749094 2.1609041 5.10585211 1.625 8.75 C1.51414062 9.54921875 1.40328125 10.3484375 1.2890625 11.171875 C1.19367188 11.77515625 1.09828125 12.3784375 1 13 C0.67 13 0.34 13 0 13 C-0.19658808 11.58456585 -0.38187546 10.16755969 -0.5625 8.75 C-0.66691406 7.96109375 -0.77132813 7.1721875 -0.87890625 6.359375 C-1.00027349 3.99467126 -0.69633257 2.2488963 0 0 Z " fill="#222726" transform="translate(433,324)"/>
<path d="M0 0 C2.31 0 4.62 0 7 0 C7 0.66 7 1.32 7 2 C5.02 2.33 3.04 2.66 1 3 C0.67 2.01 0.34 1.02 0 0 Z " fill="#212624" transform="translate(516,997)"/>
<path d="M0 0 C0.33 1.32 0.66 2.64 1 4 C-3.75 6.875 -3.75 6.875 -6 8 C-4.55746343 4.63408134 -2.66735273 2.48952921 0 0 Z " fill="#D86334" transform="translate(646,695)"/>
<path d="M0 0 C2.0625 0.4375 2.0625 0.4375 4 1 C1.03 3.475 1.03 3.475 -2 6 C-1.125 1.125 -1.125 1.125 0 0 Z " fill="#41848D" transform="translate(680,578)"/>
<path d="M0 0 C0.99 0.33 1.98 0.66 3 1 C3.33 4.3 3.66 7.6 4 11 C1.54176828 7.31265242 0.98757384 4.30300029 0 0 Z " fill="#F1F2EF" transform="translate(907,542)"/>
<path d="M0 0 C0.33 0 0.66 0 1 0 C1.33 3.63 1.66 7.26 2 11 C1.01 11 0.02 11 -1 11 C-0.67 7.37 -0.34 3.74 0 0 Z " fill="#212523" transform="translate(262,167)"/>
<path d="M0 0 C1.32 0.66 2.64 1.32 4 2 C4 2.66 4 3.32 4 4 C3.071875 4.12375 3.071875 4.12375 2.125 4.25 C-0.53489979 4.91214206 -0.53489979 4.91214206 -2 9 C-1.34 6.03 -0.68 3.06 0 0 Z " fill="#151817" transform="translate(452,60)"/>
<path d="M0 0 C0.33 0.99 0.66 1.98 1 3 C3.01508358 3.73323796 3.01508358 3.73323796 5 4 C2.36 4.33 -0.28 4.66 -3 5 C-3.33 4.01 -3.66 3.02 -4 2 C-2.68 1.34 -1.36 0.68 0 0 Z " fill="#222927" transform="translate(425,991)"/>
<path d="M0 0 C0.66 0.33 1.32 0.66 2 1 C-0.11770166 3.32947183 -2.03335588 4.88750845 -5 6 C-5.99 5.67 -6.98 5.34 -8 5 C-6.71475739 4.13619741 -5.42157581 3.28419631 -4.125 2.4375 C-3.04605469 1.72400391 -3.04605469 1.72400391 -1.9453125 0.99609375 C-1.30335938 0.66738281 -0.66140625 0.33867188 0 0 Z " fill="#E9EAE7" transform="translate(675,939)"/>
<path d="M0 0 C0.66 0 1.32 0 2 0 C1.65120368 3.25543229 0.97866739 4.01873107 -1.5625 6.25 C-2.366875 6.8275 -3.17125 7.405 -4 8 C-2.87548273 5.0280615 -1.77706209 2.66559313 0 0 Z " fill="#ECECE9" transform="translate(852,733)"/>
<path d="M0 0 C0.33 0.66 0.66 1.32 1 2 C1.66 2 2.32 2 3 2 C3 3.98 3 5.96 3 8 C2.01 7.34 1.02 6.68 0 6 C-0.1875 2.875 -0.1875 2.875 0 0 Z " fill="#252A27" transform="translate(392,625)"/>
<path d="M0 0 C2.475 0.495 2.475 0.495 5 1 C4.34 2.32 3.68 3.64 3 5 C2.67 4.34 2.34 3.68 2 3 C1.34 3 0.68 3 0 3 C0 2.01 0 1.02 0 0 Z " fill="#2C7C8C" transform="translate(565,627)"/>
<path d="M0 0 C2.25245881 2.68841859 3.88213958 4.64641875 5 8 C4.01 8 3.02 8 2 8 C-0.1519437 4.77208445 -0.20086443 3.71599191 0 0 Z " fill="#F2F2ED" transform="translate(772,543)"/>
</svg>
